<svg width="152" height="151" viewBox="0 0 152 151" fill="none" xmlns="http://www.w3.org/2000/svg">
<path d="M62.9294 5.69019C58.902 11.356 52.1973 15.0734 44.5949 15.0734C36.9925 15.0734 30.2879 11.356 26.2605 5.69019L8.53523 8.11121C4.13095 8.71267 0.854736 12.3887 0.854736 16.7272V94.2671C0.854736 99.8243 5.47189 104.329 11.1677 104.329H44.5949H78.0222C83.718 104.329 88.3351 99.8243 88.3351 94.2671V16.7278C88.3351 12.3887 85.0583 8.71333 80.6546 8.11187L62.9294 5.69019Z" fill="#231F20" style="fill:#231F20;fill:color(display-p3 0.1373 0.1216 0.1255);fill-opacity:1;"/>
<path d="M78.0215 105.162H11.1663C5.00901 105.162 0 100.275 0 94.2683V16.7277C0 12.0018 3.61859 7.94345 8.4167 7.28801L26.1419 4.86633C26.4544 4.82251 26.7779 4.95776 26.9608 5.21625C30.9784 10.8675 37.5699 14.2406 44.5949 14.2406C51.6199 14.2406 58.212 10.8675 62.229 5.21625C62.4106 4.95713 62.7263 4.82251 63.0478 4.86633L80.7717 7.28801C85.5698 7.94282 89.1885 12.0018 89.1885 16.7277V94.2683C89.1878 100.275 84.1788 105.162 78.0215 105.162ZM25.8646 6.58367L8.65234 8.9355C4.69265 9.47662 1.70678 12.8262 1.70678 16.7271V94.2676C1.70678 99.3561 5.94962 103.496 11.1663 103.496H78.0209C83.2375 103.496 87.4804 99.3561 87.4804 94.2676V16.7277C87.4804 12.8268 84.4945 9.47724 80.5348 8.93612L63.3239 6.58429C58.9645 12.4305 52.002 15.9065 44.5942 15.9065C37.1865 15.9059 30.2246 12.4299 25.8646 6.58367Z" fill="#231F20" style="fill:#231F20;fill:color(display-p3 0.1373 0.1216 0.1255);fill-opacity:1;"/>
<path d="M62.9294 0.831055C58.902 6.49691 52.1973 10.2142 44.5949 10.2142C36.9925 10.2142 30.2879 6.49691 26.2605 0.831055L8.53523 3.25208C4.13095 3.85354 0.854736 7.52961 0.854736 11.8681V89.408C0.854736 94.9652 5.47189 99.4701 11.1677 99.4701H44.5949H78.0222C83.718 99.4701 88.3351 94.9652 88.3351 89.408V11.8681C88.3351 7.52897 85.0583 3.85354 80.6546 3.25208L62.9294 0.831055Z" fill="white" style="fill:white;fill-opacity:1;"/>
<path d="M78.0215 100.302H11.1663C5.00901 100.302 0 95.4148 0 89.4079V11.8679C0 7.14204 3.61859 3.08299 8.4167 2.42819L26.1419 0.00778461C26.4544 -0.0347681 26.7759 0.0992573 26.9608 0.357749C30.9784 6.00773 37.5699 9.38081 44.5949 9.38081C51.6199 9.38081 58.212 6.00773 62.229 0.357749C62.4132 0.0992573 62.7263 -0.0347681 63.0478 0.00778461L80.7717 2.42819C85.5698 3.08299 89.1885 7.14204 89.1885 11.8679V89.4085C89.1878 95.4147 84.1788 100.302 78.0215 100.302ZM25.8646 1.72512L8.65234 4.07571C4.69265 4.61683 1.70678 7.96639 1.70678 11.8673V89.4079C1.70678 94.4964 5.94962 98.636 11.1663 98.636H78.0209C83.2375 98.636 87.4804 94.4964 87.4804 89.4079V11.8679C87.4804 7.96705 84.4945 4.61745 80.5348 4.07633L63.3239 1.72578C58.9645 7.57201 52.002 11.0467 44.5942 11.0467C37.1865 11.0461 30.2246 7.57136 25.8646 1.72512Z" fill="#231F20" style="fill:#231F20;fill:color(display-p3 0.1373 0.1216 0.1255);fill-opacity:1;"/>
<path d="M99.6714 26.0925C95.644 31.7584 88.9392 35.4757 81.3369 35.4757C73.7345 35.4757 67.0298 31.7584 63.0024 26.0925L45.2772 28.5136C40.8729 29.115 37.5967 32.7911 37.5967 37.1296V114.669C37.5967 120.227 42.2138 124.732 47.9096 124.732H81.3369H114.764C120.46 124.732 125.077 120.227 125.077 114.669V37.1302C125.077 32.7911 121.8 29.1157 117.397 28.5142L99.6714 26.0925Z" fill="#231F20" style="fill:#231F20;fill:color(display-p3 0.1373 0.1216 0.1255);fill-opacity:1;"/>
<path d="M114.763 125.564H47.9082C41.751 125.564 36.7419 120.677 36.7419 114.67V37.1295C36.7419 32.4037 40.3605 28.3453 45.1586 27.6898L62.8838 25.2682C63.1963 25.2243 63.5192 25.3596 63.7027 25.6181C67.7203 31.2693 74.3118 34.6425 81.3368 34.6425C88.3618 34.6425 94.9532 31.2693 98.9709 25.6181C99.1544 25.3596 99.4682 25.2243 99.7897 25.2682L117.514 27.6898C122.311 28.3446 125.93 32.4037 125.93 37.1295V114.67C125.93 120.677 120.921 125.564 114.763 125.564ZM62.6066 26.9862L45.3943 29.3379C41.4346 29.8791 38.4487 33.2287 38.4487 37.1295V114.67C38.4487 119.759 42.6916 123.898 47.9082 123.898H114.763C119.979 123.898 124.222 119.759 124.222 114.67V37.1295C124.222 33.2287 121.236 29.8791 117.277 29.3379L100.066 26.9862C95.7064 32.8324 88.7439 36.3084 81.3361 36.3084C73.9284 36.3084 66.9666 32.8324 62.6066 26.9862Z" fill="#231F20" style="fill:#231F20;fill:color(display-p3 0.1373 0.1216 0.1255);fill-opacity:1;"/>
<path d="M99.6714 21.2327C95.644 26.8985 88.9392 30.6158 81.3369 30.6158C73.7345 30.6158 67.0298 26.8985 63.0024 21.2327L45.2772 23.6537C40.8729 24.2552 37.5967 27.9312 37.5967 32.2697V109.81C37.5967 115.367 42.2138 119.872 47.9096 119.872H81.3369H114.764C120.46 119.872 125.077 115.367 125.077 109.81V32.2703C125.077 27.9312 121.8 24.2558 117.397 23.6544L99.6714 21.2327Z" fill="white" style="fill:white;fill-opacity:1;"/>
<path d="M114.763 120.704H47.9082C41.751 120.704 36.7419 115.817 36.7419 109.81V32.2698C36.7419 27.5439 40.3605 23.4855 45.1586 22.8301L62.8838 20.4084C63.1963 20.3671 63.5192 20.4986 63.7027 20.7583C67.7203 26.4096 74.3118 29.7827 81.3368 29.7827C88.3618 29.7827 94.9532 26.4096 98.9709 20.7583C99.1544 20.4986 99.4682 20.3671 99.7897 20.4084L117.514 22.8301C122.311 23.4849 125.93 27.5439 125.93 32.2698V109.81C125.93 115.817 120.921 120.704 114.763 120.704ZM62.6066 22.1264L45.3943 24.4782C41.4346 25.0193 38.4487 28.3689 38.4487 32.2698V109.81C38.4487 114.899 42.6916 119.039 47.9082 119.039H114.763C119.979 119.039 124.222 114.899 124.222 109.81V32.2698C124.222 28.3689 121.236 25.0193 117.277 24.4782L100.066 22.1264C95.7064 27.9726 88.7439 31.4486 81.3361 31.4486C73.9284 31.4486 66.9666 27.9726 62.6066 22.1264Z" fill="#231F20" style="fill:#231F20;fill:color(display-p3 0.1373 0.1216 0.1255);fill-opacity:1;"/>
<path d="M125.74 51.5283C121.713 57.1942 115.007 60.9115 107.406 60.9115C99.804 60.9115 93.0986 57.1942 89.0712 51.5283L71.346 53.9494C66.9417 54.5508 63.6655 58.2269 63.6655 62.5653V140.105C63.6655 145.663 68.2827 150.167 73.9784 150.167H107.406H140.833C146.529 150.167 151.146 145.663 151.146 140.105V62.5653C151.146 58.2262 147.869 54.5508 143.465 53.9494L125.74 51.5283Z" fill="#231F20" style="fill:#231F20;fill:color(display-p3 0.1373 0.1216 0.1255);fill-opacity:1;"/>
<path d="M140.832 151H73.9778C67.8205 151 62.8115 146.113 62.8115 140.106V62.5651C62.8115 57.8392 66.4301 53.7809 71.2282 53.1254L88.9534 50.7037C89.2659 50.6599 89.5887 50.7952 89.7723 51.0537C93.7899 56.7049 100.381 60.078 107.406 60.078C114.431 60.078 121.023 56.7049 125.04 51.0537C125.224 50.7945 125.538 50.6599 125.859 50.7037L143.583 53.1254C148.381 53.7809 152 57.8392 152 62.5651V140.106C151.999 146.113 146.99 151 140.832 151ZM88.6761 52.4217L71.4639 54.7735C67.5042 55.3146 64.5183 58.6642 64.5183 62.5651V140.106C64.5183 145.194 68.7611 149.334 73.9778 149.334H140.832C146.049 149.334 150.292 145.194 150.292 140.106V62.5651C150.292 58.6642 147.306 55.3146 143.346 54.7735L126.135 52.4217C121.776 58.2679 114.814 61.7439 107.406 61.7439C99.998 61.7439 93.0355 58.2679 88.6761 52.4217Z" fill="#231F20" style="fill:#231F20;fill:color(display-p3 0.1373 0.1216 0.1255);fill-opacity:1;"/>
<path d="M125.74 46.6685C121.713 52.3343 115.007 56.0516 107.406 56.0516C99.804 56.0516 93.0986 52.3343 89.0712 46.6685L71.346 49.0895C66.9417 49.691 63.6655 53.367 63.6655 57.7055V135.245C63.6655 140.803 68.2827 145.307 73.9784 145.307H107.406H140.833C146.529 145.307 151.146 140.803 151.146 135.245V57.7055C151.146 53.3664 147.869 49.691 143.465 49.0895L125.74 46.6685Z" fill="white" style="fill:white;fill-opacity:1;"/>
<path d="M140.832 146.14H73.9778C67.8205 146.14 62.8115 141.253 62.8115 135.247V57.7053C62.8115 52.9794 66.4301 48.921 71.2282 48.2656L88.9534 45.8439C89.2659 45.8026 89.5887 45.9341 89.7723 46.1939C93.7899 51.8451 100.381 55.2188 107.406 55.2188C114.431 55.2188 121.023 51.8458 125.04 46.1939C125.224 45.9341 125.538 45.8026 125.859 45.8439L143.583 48.2656C148.381 48.921 152 52.9794 152 57.7053V135.246C151.999 141.252 146.99 146.14 140.832 146.14ZM88.6761 47.5619L71.4639 49.9137C67.5042 50.4548 64.5183 53.8044 64.5183 57.7053V135.246C64.5183 140.334 68.7611 144.474 73.9778 144.474H140.832C146.049 144.474 150.292 140.334 150.292 135.246V57.7053C150.292 53.8044 147.306 50.4548 143.346 49.9137L126.135 47.5619C121.776 53.4081 114.814 56.8841 107.406 56.8841C99.998 56.8841 93.0355 53.4081 88.6761 47.5619Z" fill="#231F20" style="fill:#231F20;fill:color(display-p3 0.1373 0.1216 0.1255);fill-opacity:1;"/>
</svg>
