<svg width="129" height="149" viewBox="0 0 129 149" fill="none" xmlns="http://www.w3.org/2000/svg">
<path d="M128.028 0.811768H0.971924V148.189H128.028V0.811768Z" fill="white" style="fill:white;fill-opacity:1;"/>
<path d="M128.028 0.811768H0.971924V28.9134H128.028V0.811768Z" fill="#E0F5FE" style="fill:#E0F5FE;fill:color(display-p3 0.8784 0.9608 0.9961);fill-opacity:1;"/>
<path d="M64.4996 123.834C91.3426 123.834 113.103 105.661 113.103 83.2432C113.103 60.8255 91.3426 42.6523 64.4996 42.6523C37.6566 42.6523 15.896 60.8255 15.896 83.2432C15.896 105.661 37.6566 123.834 64.4996 123.834Z" fill="#E0F5FE" style="fill:#E0F5FE;fill:color(display-p3 0.8784 0.9608 0.9961);fill-opacity:1;"/>
<path d="M128.028 132.993H0.971924V148.188H128.028V132.993Z" fill="#E0F5FE" style="fill:#E0F5FE;fill:color(display-p3 0.8784 0.9608 0.9961);fill-opacity:1;"/>
<path d="M27.0303 16.6575C28.0141 13.1602 25.4168 9.65903 21.2291 8.83742C17.0414 8.01581 12.8491 10.1849 11.8653 13.6822C10.8815 17.1795 13.4788 20.6807 17.6665 21.5023C21.8542 22.3239 26.0465 20.1548 27.0303 16.6575Z" fill="white" style="fill:white;fill-opacity:1;"/>
<path d="M48.6429 19.7761C51.6847 17.2358 51.6846 13.1172 48.6429 10.577C45.6012 8.03669 40.6696 8.03668 37.6279 10.5769C34.5862 13.1172 34.5862 17.2358 37.6279 19.7761C40.6696 22.3163 45.6012 22.3163 48.6429 19.7761Z" fill="white" style="fill:white;fill-opacity:1;"/>
<path d="M118.658 10.061H81.7688V20.2894H118.658V10.061Z" fill="white" style="fill:white;fill-opacity:1;"/>
<path d="M64.4995 124.646C37.1638 124.646 14.9241 106.072 14.9241 83.2425C14.9241 60.4127 37.1631 41.8394 64.4995 41.8394C91.8367 41.8394 114.076 60.4127 114.076 83.2425C114.076 106.072 91.8359 124.646 64.4995 124.646ZM64.4995 43.4639C38.2351 43.4639 16.8685 61.3092 16.8685 83.2431C16.8685 105.177 38.2358 123.022 64.4995 123.022C90.7647 123.022 112.13 105.177 112.13 83.2431C112.13 61.3092 90.7639 43.4639 64.4995 43.4639Z" fill="#231F20" style="fill:#231F20;fill:color(display-p3 0.1373 0.1216 0.1255);fill-opacity:1;"/>
<path d="M64.4998 118.422C87.7639 118.422 106.623 102.672 106.623 83.2429C106.623 63.8141 87.7639 48.064 64.4998 48.064C41.2357 48.064 22.3765 63.8141 22.3765 83.2429C22.3765 102.672 41.2357 118.422 64.4998 118.422Z" fill="white" style="fill:white;fill-opacity:1;"/>
<path d="M19.4563 22.4914C14.6252 22.4914 10.6948 19.209 10.6948 15.1744C10.6948 11.1404 14.6252 7.85791 19.4563 7.85791C24.2874 7.85791 28.2178 11.1404 28.2178 15.1744C28.2178 19.2096 24.2874 22.4914 19.4563 22.4914ZM19.4563 9.48179C15.6972 9.48179 12.6385 12.0356 12.6385 15.175C12.6385 18.3143 15.6965 20.8682 19.4563 20.8682C23.2161 20.8682 26.2734 18.3143 26.2734 15.175C26.2734 12.0356 23.2154 9.48179 19.4563 9.48179Z" fill="#231F20" style="fill:#231F20;fill:color(display-p3 0.1373 0.1216 0.1255);fill-opacity:1;"/>
<path d="M43.1392 22.4914C38.3081 22.4914 34.3777 19.209 34.3777 15.1744C34.3777 11.1404 38.3081 7.85791 43.1392 7.85791C47.9702 7.85791 51.9006 11.1404 51.9006 15.1744C51.8999 19.2096 47.9702 22.4914 43.1392 22.4914ZM43.1392 9.48179C39.3801 9.48179 36.3214 12.0356 36.3214 15.175C36.3214 18.3143 39.3794 20.8682 43.1392 20.8682C46.899 20.8682 49.9569 18.3143 49.9569 15.175C49.9562 12.0356 46.8982 9.48179 43.1392 9.48179Z" fill="#231F20" style="fill:#231F20;fill:color(display-p3 0.1373 0.1216 0.1255);fill-opacity:1;"/>
<path d="M128.027 29.7249H0.971847C0.434734 29.7249 0 29.3612 0 28.9133V0.81163C0 0.363684 0.435476 0 0.971847 0H128.027C128.565 0 129 0.363684 129 0.81163V28.9133C129 29.3612 128.565 29.7249 128.027 29.7249ZM1.94369 28.1017H127.055V1.62388H1.94369V28.1017Z" fill="#231F20" style="fill:#231F20;fill:color(display-p3 0.1373 0.1216 0.1255);fill-opacity:1;"/>
<path d="M118.658 21.1007H81.7697C81.2326 21.1007 80.7971 20.737 80.7971 20.2891V10.0607C80.7971 9.61271 81.2326 9.24902 81.7697 9.24902H118.658C119.195 9.24902 119.63 9.61271 119.63 10.0607V20.2891C119.63 20.737 119.195 21.1007 118.658 21.1007ZM82.7423 19.4774H117.685V10.8723H82.7423V19.4774Z" fill="#231F20" style="fill:#231F20;fill:color(display-p3 0.1373 0.1216 0.1255);fill-opacity:1;"/>
<path d="M128.027 149H0.971847C0.434734 149 0 148.636 0 148.188V0.81163C0 0.363684 0.435476 0 0.971847 0H128.027C128.565 0 129 0.363684 129 0.81163V148.188C129 148.637 128.565 149 128.027 149ZM1.94369 147.377H127.055V1.62326H1.94369V147.377Z" fill="#231F20" style="fill:#231F20;fill:color(display-p3 0.1373 0.1216 0.1255);fill-opacity:1;"/>
<path d="M23.7288 92.1115C28.4359 107.247 44.9039 118.422 64.4997 118.422C83.7245 118.422 99.9291 107.662 104.981 92.9634L101.825 94.4726C90.612 99.8343 76.9089 100.083 65.427 95.1337L64.7452 94.8115C52.132 88.8463 37.1039 87.9356 23.7288 92.1115Z" fill="#E0F5FE" style="fill:#E0F5FE;fill:color(display-p3 0.8784 0.9608 0.9961);fill-opacity:1;"/>
<path d="M64.4997 119.234C40.7369 119.234 21.4045 103.088 21.4045 83.2425C21.4045 63.3972 40.7362 47.252 64.4997 47.252C88.2625 47.252 107.596 63.3972 107.596 83.2425C107.596 103.088 88.2625 119.234 64.4997 119.234ZM64.4997 48.8758C41.8089 48.8758 23.349 64.2925 23.349 83.2431C23.349 102.194 41.8089 117.611 64.4997 117.611C87.1905 117.611 105.651 102.194 105.651 83.2431C105.651 64.2925 87.1905 48.8758 64.4997 48.8758Z" fill="#231F20" style="fill:#231F20;fill:color(display-p3 0.1373 0.1216 0.1255);fill-opacity:1;"/>
<path d="M88.341 74.8162C84.51 74.8162 81.4038 77.4103 81.4038 80.6097C81.4038 83.8092 84.51 86.4033 88.341 86.4033C92.1721 86.4033 95.2782 83.8098 95.2782 80.6097C95.2775 77.4103 92.1721 74.8162 88.341 74.8162ZM91.1156 80.6097C90.1304 80.6097 89.3314 79.9424 89.3314 79.1203C89.3314 78.2975 90.1304 77.6302 91.1156 77.6302C92.1008 77.6302 92.8991 78.2975 92.8991 79.1203C92.8991 79.9424 92.1008 80.6097 91.1156 80.6097Z" fill="#E0F5FE" style="fill:#E0F5FE;fill:color(display-p3 0.8784 0.9608 0.9961);fill-opacity:1;"/>
<path d="M77.1494 86.8847C78.3535 86.8847 79.3297 86.0695 79.3297 85.0638C79.3297 84.0582 78.3535 83.2429 77.1494 83.2429C75.9452 83.2429 74.969 84.0582 74.969 85.0638C74.969 86.0695 75.9452 86.8847 77.1494 86.8847Z" fill="#E0F5FE" style="fill:#E0F5FE;fill:color(display-p3 0.8784 0.9608 0.9961);fill-opacity:1;"/>
<path d="M84.5658 94.0026C86.75 94.0026 88.5207 92.5238 88.5207 90.6996C88.5207 88.8755 86.75 87.3967 84.5658 87.3967C82.3816 87.3967 80.6108 88.8755 80.6108 90.6996C80.6108 92.5238 82.3816 94.0026 84.5658 94.0026Z" fill="#E0F5FE" style="fill:#E0F5FE;fill:color(display-p3 0.8784 0.9608 0.9961);fill-opacity:1;"/>
</svg>
