<svg width="183" height="100" viewBox="0 0 183 100" fill="none" xmlns="http://www.w3.org/2000/svg">
<path d="M177.326 94.9477C177.326 94.9477 175.366 90.3677 171.935 83.6553C157.097 54.626 130.038 35.0404 99.3063 31.0604C88.9373 29.7174 78.4559 29.6963 68.0824 30.9972L49.6515 32.6646V94.9483L177.326 94.9477Z" fill="white" style="fill:white;fill-opacity:1;"/>
<path d="M168.23 77.0362L49.6507 69.2773V58.8164L162.25 68.2272C164.381 71.0333 166.374 73.9762 168.23 77.0362Z" fill="white" style="fill:white;fill-opacity:1;"/>
<path d="M146.601 66.9196C146.601 66.9196 138.921 54.1368 125.265 45.6028C118.172 41.1701 114.282 37.2582 112.212 33.7109C131.917 39.2593 149.431 51.3784 162.227 68.226L146.601 66.9196Z" fill="white" style="fill:white;fill-opacity:1;"/>
<path d="M162.479 68.5454C163.346 69.6964 164.191 70.8685 165.014 72.0623L165.004 72.0636C164.184 70.8704 163.345 69.6952 162.479 68.5454Z" fill="white" style="fill:white;fill-opacity:1;"/>
<path d="M56.4297 32.0503L54.5649 20.3813L49.6513 21.4537V32.6638L56.4297 32.0503Z" fill="#E0F5FE" style="fill:#E0F5FE;fill:color(display-p3 0.8784 0.9608 0.9961);fill-opacity:1;"/>
<path d="M171.935 83.655C175.366 90.3674 177.326 94.9474 177.326 94.9474H49.6509V69.2778L168.23 77.0367C169.534 79.1852 170.776 81.3876 171.935 83.655Z" fill="#E0F5FE" style="fill:#E0F5FE;fill:color(display-p3 0.8784 0.9608 0.9961);fill-opacity:1;"/>
<path d="M93.2342 40.8259C95.5296 40.9875 97.7613 41.1968 99.7402 41.463C103.012 41.9033 105.842 44.0908 107.257 47.2734C107.426 47.6517 107.553 48.0417 107.675 48.4318L100.088 47.7984C98.0475 47.6281 96.2181 46.391 95.201 44.4939L93.2342 40.8259Z" fill="#E0F5FE" style="fill:#E0F5FE;fill:color(display-p3 0.8784 0.9608 0.9961);fill-opacity:1;"/>
<path d="M92.0144 62.035L91.2025 58.4414C90.9678 57.4018 90.1478 56.6315 89.1534 56.5157L73.6484 54.7084C72.6117 54.5876 71.6225 55.2043 71.2105 56.2284L69.5033 60.476L92.0144 62.035Z" fill="#E0F5FE" style="fill:#E0F5FE;fill:color(display-p3 0.8784 0.9608 0.9961);fill-opacity:1;"/>
<path d="M138.175 45.6212C130.171 40.3384 121.431 36.3064 112.211 33.7102H131.193C133.776 33.7102 136.197 35.0544 137.681 37.3125C138.963 39.2611 139.418 41.6963 138.934 44.0213L138.663 45.3265L138.175 45.6212Z" fill="#E0F5FE" style="fill:#E0F5FE;fill:color(display-p3 0.8784 0.9608 0.9961);fill-opacity:1;"/>
<path d="M49.6507 95.7592H177.326C177.584 95.7592 177.824 95.6181 177.964 95.3865C178.104 95.1537 178.123 94.8615 178.016 94.6101C177.996 94.5636 176.005 89.9285 172.601 83.2669C157.681 54.0779 130.314 34.2595 99.3971 30.2541C88.9789 28.9061 78.4129 28.885 67.9935 30.1909L49.5864 31.8558C49.1929 31.8911 48.891 32.2422 48.891 32.6639V94.9475C48.8916 95.3958 49.2317 95.7592 49.6507 95.7592ZM176.128 94.1358H50.4098V33.41L68.1459 31.8044C78.4703 30.5122 88.9145 30.5308 99.2145 31.8651C129.646 35.8068 156.582 55.3132 171.268 84.0439C173.654 88.7125 175.339 92.3742 176.128 94.1358Z" fill="#231F20" style="fill:#231F20;fill:color(display-p3 0.1373 0.1216 0.1255);fill-opacity:1;"/>
<path d="M45.8684 99.9999H180.636C181.941 99.9999 183 98.8687 183 97.4737C183 96.0787 181.941 94.9475 180.636 94.9475H45.8678C44.5622 94.9475 43.5035 96.0787 43.5035 97.4737C43.504 98.8687 44.5622 99.9999 45.8684 99.9999Z" fill="#231F20" style="fill:#231F20;fill:color(display-p3 0.1373 0.1216 0.1255);fill-opacity:1;"/>
<path d="M98.0758 63.3012C101.013 63.3012 103.793 62.004 105.755 59.7447L106.173 59.2629C109.087 55.9039 109.782 51.062 107.943 46.9254C106.41 43.4784 103.379 41.1355 99.8346 40.6587C93.8165 39.8482 85.4833 39.5603 80.1757 39.5603C72.7228 39.5603 61.0929 41.754 60.9764 41.7763C60.6142 41.8444 60.35 42.1812 60.35 42.5744V59.7744C60.35 60.201 60.6588 60.5545 61.0569 60.5836L98.0688 63.3006C98.0717 63.3012 98.0735 63.3012 98.0758 63.3012ZM80.1757 41.1838C85.4393 41.1838 93.6965 41.468 99.6451 42.2673C102.672 42.6741 105.262 44.6759 106.571 47.6219C108.142 51.1543 107.548 55.2903 105.059 58.1583L104.641 58.6401C102.964 60.5719 100.588 61.6802 98.121 61.6802L61.8682 59.0184V43.2592C64.3751 42.8072 73.8418 41.1838 80.1757 41.1838Z" fill="#231F20" style="fill:#231F20;fill:color(display-p3 0.1373 0.1216 0.1255);fill-opacity:1;"/>
<path d="M49.6507 95.7594H177.326C177.584 95.7594 177.824 95.6183 177.964 95.3867C178.104 95.1539 178.123 94.8617 178.016 94.6103C177.996 94.5638 176.005 89.9288 172.601 83.2671C171.486 81.0864 170.23 78.8425 168.867 76.5961C168.736 76.3807 168.517 76.2438 168.276 76.2277L49.6971 68.4683C49.4931 68.4503 49.2833 68.5326 49.1309 68.6862C48.9779 68.8397 48.8922 69.0534 48.8922 69.2775V94.9478C48.8916 95.396 49.2317 95.7594 49.6507 95.7594ZM176.128 94.136H50.4098V70.1406L167.8 77.8221C169.062 79.9198 170.228 82.0114 171.269 84.0448C173.654 88.7127 175.339 92.3745 176.128 94.136Z" fill="#231F20" style="fill:#231F20;fill:color(display-p3 0.1373 0.1216 0.1255);fill-opacity:1;"/>
<path d="M168.23 77.8485C168.499 77.8485 168.75 77.6962 168.886 77.4461C169.031 77.1817 169.023 76.8523 168.867 76.5953C166.985 73.4921 164.957 70.5045 162.84 67.717C162.709 67.5437 162.517 67.4365 162.31 67.4186L49.7104 58.0072C49.496 57.9924 49.2908 58.0679 49.1355 58.2208C48.9802 58.3744 48.8921 58.5898 48.8921 58.8171V69.278C48.8921 69.7071 49.2039 70.0618 49.6049 70.0872L168.184 77.8467C168.2 77.8473 168.215 77.8485 168.23 77.8485ZM161.865 69.0093C163.566 71.268 165.208 73.6555 166.76 76.1279L50.4098 68.5145V59.6944L161.865 69.0093Z" fill="#231F20" style="fill:#231F20;fill:color(display-p3 0.1373 0.1216 0.1255);fill-opacity:1;"/>
<path d="M162.227 69.0371C162.507 69.0371 162.767 68.8711 162.899 68.6018C163.04 68.3151 163.007 67.9653 162.816 67.7145C149.799 50.5765 132.367 38.546 112.405 32.9258C112.104 32.8478 111.784 32.9611 111.6 33.2292C111.415 33.4973 111.403 33.8583 111.567 34.14C113.941 38.2086 118.296 42.1873 124.882 46.3036C138.226 54.6432 145.887 67.2322 145.963 67.3591C146.091 67.5721 146.306 67.709 146.542 67.73L162.167 69.0352C162.187 69.0358 162.207 69.0371 162.227 69.0371ZM114.062 35.0966C132.286 40.684 148.273 51.7579 160.5 67.2669L147.028 66.1418C145.684 64.0379 138.061 52.6594 125.648 44.9011C120.286 41.5496 116.471 38.3243 114.062 35.0966Z" fill="#231F20" style="fill:#231F20;fill:color(display-p3 0.1373 0.1216 0.1255);fill-opacity:1;"/>
<path d="M165.003 72.8754C165.031 72.8754 165.059 72.873 165.087 72.8705C165.357 72.8377 165.595 72.6532 165.704 72.3888C165.813 72.1231 165.786 71.8148 165.625 71.5808C164.81 70.3969 163.953 69.2087 163.078 68.0472C163.075 68.0435 163.072 68.0397 163.07 68.0373C162.807 67.6874 162.328 67.6323 162.002 67.9141C161.676 68.1946 161.624 68.7054 161.887 69.054C162.705 70.1425 163.525 71.2836 164.391 72.5436C164.535 72.7535 164.763 72.8754 165.003 72.8754Z" fill="#231F20" style="fill:#231F20;fill:color(display-p3 0.1373 0.1216 0.1255);fill-opacity:1;"/>
<path d="M138.175 46.4335C138.303 46.4335 138.432 46.3982 138.549 46.3289L139.038 46.0341C139.225 45.9208 139.359 45.7283 139.406 45.5029L139.677 44.1977C140.206 41.6578 139.706 38.9768 138.305 36.8463C136.68 34.3758 134.022 32.8997 131.195 32.8997H112.213C111.831 32.8997 111.509 33.2031 111.461 33.6068C111.411 34.0117 111.651 34.3919 112.02 34.4965C121.11 37.0562 129.776 41.0312 137.777 46.3128C137.897 46.392 138.036 46.4335 138.175 46.4335ZM131.194 34.5225C133.527 34.5225 135.72 35.7392 137.062 37.7794C138.218 39.5372 138.631 41.7482 138.194 43.846L138.041 44.5822C131.575 40.3756 124.687 37.0029 117.501 34.5225H131.194Z" fill="#231F20" style="fill:#231F20;fill:color(display-p3 0.1373 0.1216 0.1255);fill-opacity:1;"/>
<path d="M49.6507 33.4751C49.6716 33.4751 49.6936 33.4738 49.7145 33.4713L56.4934 32.8584C56.7055 32.8404 56.9002 32.7265 57.0301 32.5463C57.1599 32.3674 57.2138 32.1383 57.1778 31.9135L55.313 20.2446C55.2788 20.0279 55.1629 19.8354 54.9937 19.7121C54.8239 19.5864 54.6141 19.5412 54.4131 19.5864L49.4989 20.6588C49.1454 20.7356 48.8916 21.0681 48.8916 21.4539V32.6627C48.8916 32.8893 48.9808 33.1067 49.1367 33.2602C49.2781 33.3989 49.4618 33.4751 49.6507 33.4751ZM55.5419 31.3166L50.4099 31.781V22.1164L53.9483 21.3449L55.5419 31.3166Z" fill="#231F20" style="fill:#231F20;fill:color(display-p3 0.1373 0.1216 0.1255);fill-opacity:1;"/>
<path d="M1.16938 75.8932C1.30962 75.8932 1.45217 75.8666 1.59067 75.809C17.1102 69.3975 18.479 55.0946 15.5763 30.9469C14.2173 19.6427 16.7329 10.4412 22.4775 5.69962C26.7588 2.16601 32.4425 1.52641 38.0688 3.9517C50.6376 9.36387 50.7343 20.8421 50.7338 20.9566C50.7309 21.6464 51.2518 22.2073 51.8968 22.2111C51.8985 22.2111 51.9003 22.2111 51.902 22.2111C52.5447 22.2111 53.0674 21.6563 53.0703 20.969C53.0726 20.4291 52.9654 7.67416 38.9427 1.636C32.5277 -1.12612 26.0049 -0.365142 21.049 3.7251C14.6317 9.02149 11.7921 19.0601 13.2589 31.264C16.0723 54.673 14.9098 67.6304 0.746929 73.4809C0.144829 73.7292 -0.153618 74.4524 0.0787582 75.0944C0.258984 75.5898 0.701149 75.8932 1.16938 75.8932Z" fill="#231F20" style="fill:#231F20;fill:color(display-p3 0.1373 0.1216 0.1255);fill-opacity:1;"/>
<path d="M107.675 49.243C107.908 49.243 108.129 49.1284 108.274 48.9309C108.431 48.7167 108.476 48.4325 108.396 48.1737C108.265 47.7532 108.126 47.3328 107.944 46.9242C106.411 43.4772 103.38 41.1343 99.8359 40.6575C97.9832 40.4074 95.7788 40.1907 93.2853 40.0148C92.9984 39.9975 92.7388 40.1418 92.591 40.3938C92.4427 40.647 92.4369 40.9677 92.576 41.2278L94.5428 44.897C95.6861 47.0288 97.7375 48.4145 100.029 48.6071L107.616 49.2399C107.636 49.2417 107.656 49.243 107.675 49.243ZM94.6007 41.7423C96.4876 41.8946 98.1797 42.0705 99.6452 42.2674C102.639 42.6711 105.204 44.6308 106.527 47.5223L100.148 46.9898C98.357 46.8412 96.7541 45.7564 95.8605 44.0914L94.6007 41.7423Z" fill="#231F20" style="fill:#231F20;fill:color(display-p3 0.1373 0.1216 0.1255);fill-opacity:1;"/>
<path d="M92.0144 62.8473C92.2375 62.8473 92.4507 62.7414 92.5956 62.5569C92.7509 62.3606 92.8089 62.0962 92.7527 61.8449L91.9408 58.2505C91.6313 56.884 90.5448 55.8624 89.2363 55.7076L73.7307 53.9009C72.3521 53.7448 71.0598 54.5467 70.5133 55.907L68.8061 60.1539C68.7087 60.3966 68.7273 60.6746 68.8565 60.8987C68.9857 61.1229 69.2083 61.2665 69.4552 61.2839L91.9663 62.8442C91.9819 62.846 91.9976 62.8473 92.0144 62.8473ZM73.3876 55.5045C73.4461 55.5045 73.5064 55.5082 73.5661 55.5157L89.0705 57.3218C89.7445 57.401 90.3049 57.9273 90.4642 58.6307L91.0339 61.1538L70.6251 59.7397L71.9082 56.5485C72.1666 55.907 72.7467 55.5045 73.3876 55.5045Z" fill="#231F20" style="fill:#231F20;fill:color(display-p3 0.1373 0.1216 0.1255);fill-opacity:1;"/>
</svg>
