<svg width="47" height="47" viewBox="0 0 47 47" fill="none" xmlns="http://www.w3.org/2000/svg">
<path d="M23.2207 0C10.3963 0 0 10.3096 0 23.027C0 35.7444 10.3963 46.0539 23.2207 46.0539C36.0451 46.0539 46.4414 35.7444 46.4414 23.027C46.4414 10.3096 36.0451 0 23.2207 0ZM23.2207 42.435C12.4117 42.435 3.64938 33.7458 3.64938 23.027C3.64938 12.3082 12.4117 3.61864 23.2207 3.61864C34.0297 3.61864 42.792 12.3079 42.792 23.0267C42.792 33.7455 34.0297 42.435 23.2207 42.435Z" fill="#2B3990" style="fill:#2B3990;fill:color(display-p3 0.1686 0.2235 0.5647);fill-opacity:1;"/>
<path d="M40.8131 23.0268C40.8131 32.6617 32.9366 40.4725 23.2206 40.4725C13.5047 40.4725 5.62817 32.6617 5.62817 23.0268C5.62817 20.2881 6.27993 17.564 7.53304 15.1228C8.34398 13.5428 10.7774 9.23487 12.9308 9.34332C13.9077 9.39243 14.4503 10.617 14.1809 11.5495C13.9118 12.482 13.1271 13.1619 12.3946 13.8047C10.7346 15.2608 9.08742 16.9147 8.51466 19.0378C8.37729 19.5471 8.31244 20.1153 8.56271 20.5801C8.81298 21.0452 9.48242 21.3089 9.90101 20.9841C9.91044 20.0425 10.1044 19.103 10.4688 18.2334C10.7335 17.6014 11.1058 16.9866 11.6756 16.6005C12.2454 16.2143 13.0457 16.1062 13.625 16.4783C14.4433 17.0045 14.4831 18.2246 14.0604 19.096C13.6376 19.9677 12.8836 20.631 12.3194 21.42C11.0465 23.1996 10.8552 25.7598 12.0856 27.5683C13.316 29.3769 16.0018 30.1332 17.8919 29.0165C18.5779 28.6113 19.122 28.0127 19.7381 27.5087C20.9452 26.5215 22.451 25.8983 24.0074 25.7413C24.523 25.6893 25.0533 25.6887 25.5488 25.8393C26.0647 25.9959 26.5154 26.3076 26.975 26.5876C28.8165 27.7101 30.9787 28.3886 33.1347 28.2357C35.2907 28.0828 37.4223 27.0331 38.6332 25.2575C39.731 23.6477 39.9983 21.6225 40.0246 19.6795C40.0237 19.7412 40.5938 20.5263 40.6628 20.7713C40.8576 21.4615 40.8131 22.3153 40.8131 23.0268Z" fill="#00B1EF" style="fill:#00B1EF;fill:color(display-p3 0.0000 0.6941 0.9373);fill-opacity:1;"/>
<path d="M40.8131 23.0268C40.8131 32.6617 32.9366 40.4725 23.2206 40.4725C13.5047 40.4725 5.62817 32.6617 5.62817 23.0268C5.62817 20.2881 6.27993 17.564 7.53304 15.1228C8.34398 13.5428 10.7774 9.23487 12.9308 9.34332C13.9077 9.39243 14.4503 10.617 14.1809 11.5495C13.9118 12.482 13.1271 13.1619 12.3946 13.8047C10.7346 15.2608 9.08742 16.9147 8.51466 19.0378C8.37729 19.5471 8.31244 20.1153 8.56271 20.5801C8.81298 21.0452 9.48242 21.3089 9.90101 20.9841C9.91044 20.0425 10.1044 19.103 10.4688 18.2334C10.7335 17.6014 11.1058 16.9866 11.6756 16.6005C12.2454 16.2143 13.0457 16.1062 13.625 16.4783C14.4433 17.0045 14.4831 18.2246 14.0604 19.096C13.6376 19.9677 12.8836 20.631 12.3194 21.42C11.0465 23.1996 10.8552 25.7598 12.0856 27.5683C13.316 29.3769 16.0018 30.1332 17.8919 29.0165C18.5779 28.6113 19.122 28.0127 19.7381 27.5087C20.9452 26.5215 22.451 25.8983 24.0074 25.7413C24.523 25.6893 25.0533 25.6887 25.5488 25.8393C26.0647 25.9959 26.5154 26.3076 26.975 26.5876C28.8165 27.7101 30.9787 28.3886 33.1347 28.2357C35.2907 28.0828 37.4223 27.0331 38.6332 25.2575C39.731 23.6477 39.9983 21.6225 40.0246 19.6795C40.0237 19.7412 40.5938 20.5263 40.6628 20.7713C40.8576 21.4615 40.8131 22.3153 40.8131 23.0268Z" fill="#00B1EF" style="fill:#00B1EF;fill:color(display-p3 0.0000 0.6941 0.9373);fill-opacity:1;"/>
<path d="M13.2803 14.6304C13.5444 14.671 13.805 14.7341 14.0582 14.8186C14.7303 15.0431 16.448 17.1341 16.7628 18.8813C17.5033 18.3563 18.1229 17.6845 18.7367 17.018C18.7119 19.556 20.0299 22.0948 19.3822 24.5503C19.1909 25.2752 18.8351 25.9484 18.6252 26.6684C18.5082 27.0701 18.4395 27.4793 18.4062 27.8918C18.8684 27.5325 19.2841 27.1098 19.7386 26.738C20.9457 25.7508 22.4515 25.1276 24.0079 24.9706C24.5235 24.9186 25.0538 24.918 25.5493 25.0685C26.0652 25.2252 26.5159 25.5368 26.9755 25.8169C28.7329 26.888 30.7825 27.5533 32.8401 27.479C32.7682 26.5828 32.8103 25.6731 32.9327 24.7821C33.1685 23.0635 33.8456 21.4864 34.1905 19.8065C34.2527 19.5036 34.5372 17.1776 34.2571 16.9283C34.7703 17.3846 35.1945 17.8915 35.466 18.5317C35.5244 18.6696 35.6373 18.8415 35.7791 18.7901C36.6498 17.5153 37.9504 16.6029 39.2224 15.7193C39.5425 15.4968 35.8766 11.2441 35.4678 10.8109C34.582 9.87284 33.3439 9.34082 32.048 9.34082H29.859C29.859 10.9059 28.4025 12.1746 26.6058 12.1746C24.8091 12.1746 23.3526 10.9059 23.3526 9.34082C23.3526 9.34082 21.1642 9.34082 21.1636 9.34082C19.6363 9.34082 18.2674 10.178 17.1675 11.1567C16.955 11.3458 16.7248 11.4742 16.4951 11.6326C16.0365 12.0585 15.5719 12.4517 15.1333 12.8937C14.6643 13.3667 14.2065 13.8519 13.6974 14.2831C13.5591 14.4006 13.4197 14.5155 13.2803 14.6304Z" fill="#FF7700" style="fill:#FF7700;fill:color(display-p3 1.0000 0.4667 0.0000);fill-opacity:1;"/>
<path d="M26.4232 29.3315C25.8004 29.3315 25.2954 29.8323 25.2954 30.45C25.2954 31.0676 25.8004 31.5684 26.4232 31.5684C27.0461 31.5684 27.5511 31.0676 27.5511 30.45C27.5511 29.8323 27.0461 29.3315 26.4232 29.3315ZM26.4232 31.426C26.3991 31.426 26.3752 31.4249 26.3516 31.4231C26.8616 31.3866 27.2642 30.965 27.2642 30.45C27.2642 29.9349 26.8619 29.5134 26.3516 29.4768C26.3755 29.4751 26.3991 29.4739 26.4232 29.4739C26.9668 29.4739 27.4075 29.9109 27.4075 30.45C27.4075 30.989 26.9668 31.426 26.4232 31.426Z" fill="#F8F7E4" style="fill:#F8F7E4;fill:color(display-p3 0.9744 0.9671 0.8940);fill-opacity:1;"/>
<path d="M22.3903 27.0947C21.7674 27.0947 21.2625 27.5955 21.2625 28.2131C21.2625 28.8308 21.7674 29.3316 22.3903 29.3316C23.0132 29.3316 23.5181 28.8308 23.5181 28.2131C23.5181 27.5955 23.0132 27.0947 22.3903 27.0947ZM22.3903 29.1892C22.3661 29.1892 22.3422 29.188 22.3187 29.1863C22.8286 29.1497 23.2313 28.7282 23.2313 28.2131C23.2313 27.6981 22.8289 27.2766 22.3187 27.24C22.3425 27.2383 22.3661 27.2371 22.3903 27.2371C22.9339 27.2371 23.3746 27.6741 23.3746 28.2131C23.3746 28.7522 22.9339 29.1892 22.3903 29.1892Z" fill="#F8F7E4" style="fill:#F8F7E4;fill:color(display-p3 0.9744 0.9671 0.8940);fill-opacity:1;"/>
<path d="M9.75771 25.9761C9.13484 25.9761 8.62988 26.4768 8.62988 27.0945C8.62988 27.7122 9.13484 28.2129 9.75771 28.2129C10.3806 28.2129 10.8855 27.7122 10.8855 27.0945C10.8855 26.4768 10.3806 25.9761 9.75771 25.9761ZM9.75771 28.0706C9.73354 28.0706 9.70966 28.0694 9.68608 28.0676C10.196 28.0311 10.5987 27.6096 10.5987 27.0945C10.5987 26.5794 10.1963 26.1579 9.68608 26.1214C9.70966 26.1196 9.73354 26.1184 9.75771 26.1184C10.3013 26.1184 10.742 26.5555 10.742 27.0945C10.742 27.6335 10.3016 28.0706 9.75771 28.0706Z" fill="#F8F7E4" style="fill:#F8F7E4;fill:color(display-p3 0.9744 0.9671 0.8940);fill-opacity:1;"/>
<path d="M30.8511 30.4253C30.3659 30.4253 29.9727 30.8152 29.9727 31.2964C29.9727 31.7776 30.3659 32.1675 30.8511 32.1675C31.3363 32.1675 31.7295 31.7776 31.7295 31.2964C31.7295 30.8152 31.3363 30.4253 30.8511 30.4253ZM30.8511 32.0567C30.8322 32.0567 30.8137 32.0559 30.7951 32.0544C31.1925 32.026 31.5058 31.6975 31.5058 31.2961C31.5058 30.8948 31.1922 30.5665 30.7951 30.5378C30.8137 30.5364 30.8322 30.5355 30.8511 30.5355C31.2747 30.5355 31.6178 30.8761 31.6178 31.2958C31.6181 31.7165 31.2747 32.0567 30.8511 32.0567Z" fill="#F8F7E4" style="fill:#F8F7E4;fill:color(display-p3 0.9744 0.9671 0.8940);fill-opacity:1;"/>
<path d="M34.1138 26.2236C33.6286 26.2236 33.2354 26.6136 33.2354 27.0947C33.2354 27.5759 33.6286 27.9659 34.1138 27.9659C34.599 27.9659 34.9922 27.5759 34.9922 27.0947C34.9925 26.6136 34.599 26.2236 34.1138 26.2236ZM34.1138 27.8554C34.0949 27.8554 34.0764 27.8545 34.0578 27.853C34.4551 27.8247 34.7685 27.4961 34.7685 27.095C34.7685 26.6937 34.4549 26.3654 34.0578 26.3371C34.0764 26.3356 34.0949 26.3347 34.1138 26.3347C34.5374 26.3347 34.8805 26.6753 34.8805 27.095C34.8805 27.5148 34.5374 27.8554 34.1138 27.8554Z" fill="#F8F7E4" style="fill:#F8F7E4;fill:color(display-p3 0.9744 0.9671 0.8940);fill-opacity:1;"/>
<path d="M25.5445 22.8091C25.0593 22.8091 24.666 23.199 24.666 23.6802C24.666 24.1614 25.0593 24.5513 25.5445 24.5513C26.0297 24.5513 26.4229 24.1614 26.4229 23.6802C26.4232 23.1993 26.0297 22.8091 25.5445 22.8091ZM25.5445 24.4408C25.5256 24.4408 25.507 24.4399 25.4884 24.4385C25.8858 24.4101 26.1992 24.0816 26.1992 23.6805C26.1992 23.2791 25.8855 22.9509 25.4884 22.9225C25.507 22.921 25.5256 22.9202 25.5445 22.9202C25.9681 22.9202 26.3112 23.2604 26.3112 23.6805C26.3112 24.1006 25.9681 24.4408 25.5445 24.4408Z" fill="#F8F7E4" style="fill:#F8F7E4;fill:color(display-p3 0.9744 0.9671 0.8940);fill-opacity:1;"/>
<path d="M15.4397 21.2847C14.9545 21.2847 14.5613 21.6746 14.5613 22.1558C14.5613 22.6369 14.9545 23.0269 15.4397 23.0269C15.9249 23.0269 16.3182 22.6369 16.3182 22.1558C16.3182 21.6746 15.9249 21.2847 15.4397 21.2847ZM15.4397 22.9161C15.4209 22.9161 15.4023 22.9152 15.3837 22.9138C15.7811 22.8854 16.0944 22.5568 16.0944 22.1558C16.0944 21.7544 15.7808 21.4262 15.3837 21.3975C15.4023 21.396 15.4209 21.3952 15.4397 21.3952C15.8633 21.3952 16.2064 21.7357 16.2064 22.1555C16.2064 22.5753 15.8633 22.9161 15.4397 22.9161Z" fill="#F8F7E4" style="fill:#F8F7E4;fill:color(display-p3 0.9744 0.9671 0.8940);fill-opacity:1;"/>
<path d="M15.1389 23.6807C13.9663 23.6807 13.0156 24.6234 13.0156 25.7862C13.0156 26.9491 13.9663 27.8918 15.1389 27.8918C16.3116 27.8918 17.2622 26.9491 17.2622 25.7862C17.2622 24.6234 16.3116 23.6807 15.1389 23.6807ZM15.1389 27.6238C15.0935 27.6238 15.0484 27.6217 15.0039 27.6185C15.9643 27.5498 16.7219 26.7559 16.7219 25.7862C16.7219 24.8163 15.9643 24.0227 15.0039 23.954C15.0487 23.9508 15.0935 23.9487 15.1389 23.9487C16.1624 23.9487 16.9919 24.7716 16.9919 25.7862C16.9919 26.8012 16.1621 27.6238 15.1389 27.6238Z" fill="#F8F7E4" style="fill:#F8F7E4;fill:color(display-p3 0.9744 0.9671 0.8940);fill-opacity:1;"/>
<path d="M19.2196 31.48C18.4208 31.48 17.7734 32.1222 17.7734 32.9141C17.7734 33.706 18.4211 34.3482 19.2196 34.3482C20.0182 34.3482 20.6658 33.706 20.6658 32.9141C20.6658 32.1222 20.0182 31.48 19.2196 31.48ZM19.2196 34.1658C19.1887 34.1658 19.158 34.1644 19.1277 34.162C19.7818 34.1153 20.2976 33.5747 20.2976 32.9141C20.2976 32.2538 19.7815 31.713 19.1277 31.6662C19.158 31.6638 19.1887 31.6624 19.2196 31.6624C19.9168 31.6624 20.4819 32.2228 20.4819 32.9141C20.4816 33.6054 19.9165 34.1658 19.2196 34.1658Z" fill="#F8F7E4" style="fill:#F8F7E4;fill:color(display-p3 0.9744 0.9671 0.8940);fill-opacity:1;"/>
<path d="M12.3317 17.1826C11.5328 17.1826 10.8855 17.8246 10.8855 18.6167C10.8855 19.4089 11.5328 20.0509 12.3317 20.0509C13.1302 20.0509 13.7779 19.4089 13.7779 18.6167C13.7779 17.8248 13.1305 17.1826 12.3317 17.1826ZM12.3317 19.8685C12.3007 19.8685 12.2701 19.867 12.2397 19.865C12.8938 19.8182 13.4097 19.2774 13.4097 18.617C13.4097 17.9567 12.8935 17.4159 12.2397 17.3691C12.2701 17.3671 12.3007 17.3653 12.3317 17.3653C13.0288 17.3653 13.5939 17.9257 13.5939 18.617C13.5939 19.3081 13.0288 19.8685 12.3317 19.8685Z" fill="#F8F7E4" style="fill:#F8F7E4;fill:color(display-p3 0.9744 0.9671 0.8940);fill-opacity:1;"/>
<path d="M35.8947 23.0269C35.0961 23.0269 34.4485 23.6688 34.4485 24.461C34.4485 25.2532 35.0961 25.8951 35.8947 25.8951C36.6935 25.8951 37.3409 25.2529 37.3409 24.461C37.3409 23.6688 36.6935 23.0269 35.8947 23.0269ZM35.8947 25.7124C35.8637 25.7124 35.8331 25.7109 35.8027 25.7089C36.4568 25.6621 36.9727 25.1216 36.9727 24.461C36.9727 23.8006 36.4565 23.2598 35.8027 23.2131C35.8331 23.211 35.8637 23.2096 35.8947 23.2096C36.5918 23.2096 37.1569 23.7699 37.1569 24.461C37.1569 25.152 36.5918 25.7124 35.8947 25.7124Z" fill="#F8F7E4" style="fill:#F8F7E4;fill:color(display-p3 0.9744 0.9671 0.8940);fill-opacity:1;"/>
<path d="M30.1852 22.7124C29.3864 22.7124 28.739 23.3543 28.739 24.1465C28.739 24.9384 29.3866 25.5807 30.1852 25.5807C30.9838 25.5807 31.6314 24.9384 31.6314 24.1465C31.6314 23.3543 30.9838 22.7124 30.1852 22.7124ZM30.1852 25.398C30.1543 25.398 30.1236 25.3965 30.0932 25.3942C30.7474 25.3474 31.2632 24.8069 31.2632 24.1462C31.2632 23.4856 30.7471 22.9451 30.0932 22.8983C30.1236 22.8963 30.1543 22.8945 30.1852 22.8945C30.8824 22.8945 31.4475 23.4549 31.4475 24.1462C31.4475 24.8376 30.8821 25.398 30.1852 25.398Z" fill="#F8F7E4" style="fill:#F8F7E4;fill:color(display-p3 0.9744 0.9671 0.8940);fill-opacity:1;"/>
<path d="M22.6104 20.604C21.5366 20.604 20.6658 21.4672 20.6658 22.5324C20.6658 23.5974 21.5366 24.4609 22.6104 24.4609C23.6843 24.4609 24.5551 23.5977 24.5551 22.5324C24.5548 21.4672 23.6843 20.604 22.6104 20.604ZM22.6104 24.2153C22.5689 24.2153 22.5276 24.2133 22.4866 24.2104C23.366 24.1475 24.0599 23.4205 24.0599 22.5322C24.0599 21.6441 23.366 20.9171 22.4866 20.8542C22.5276 20.8513 22.5686 20.8493 22.6104 20.8493C23.5478 20.8493 24.3075 21.6029 24.3075 22.5322C24.3075 23.4617 23.5475 24.2153 22.6104 24.2153Z" fill="#F8F7E4" style="fill:#F8F7E4;fill:color(display-p3 0.9744 0.9671 0.8940);fill-opacity:1;"/>
</svg>
