<svg width="696" height="743" viewBox="0 0 696 743" fill="none" xmlns="http://www.w3.org/2000/svg">
<path d="M692.478 605.695C676.89 693.513 617.101 766.538 545.706 810.211C474.312 853.883 392.072 871.589 310.698 880.822C192.739 894.22 73.2003 891.142 -44.0669 871.684C-113.275 860.204 -183.933 841.954 -240.196 796.412C-296.459 750.894 -335.166 672.211 -319.493 597.6C-292.022 466.867 -127.823 423.524 -83.0132 298.636C-70.8259 264.643 -68.747 227.387 -59.9358 192.141C-37.9852 104.44 28.8428 31.9347 109.221 8.66572C146.088 -2.01722 187.522 -3.53817 228.364 8.14048C308.326 31.0035 364.076 109.562 368.075 199.832C369.623 234.767 373.652 268.409 392.461 295.937C436.903 360.961 529.296 345.883 596.729 379.827C671.047 417.227 708.087 517.875 692.478 605.695Z" fill="url(#paint0_linear_4112_181)" style=""/>
<defs>
<linearGradient id="paint0_linear_4112_181" x1="-323.001" y1="444.5" x2="696" y2="444.5" gradientUnits="userSpaceOnUse">
<stop stop-color="#39D4FF" style="stop-color:#39D4FF;stop-color:color(display-p3 0.2235 0.8318 1.0000);stop-opacity:1;"/>
<stop offset="1" stop-color="#7FC5FF" style="stop-color:#7FC5FF;stop-color:color(display-p3 0.4980 0.7725 1.0000);stop-opacity:1;"/>
</linearGradient>
</defs>
</svg>
