<svg width="271" height="192" viewBox="0 0 271 192" fill="none" xmlns="http://www.w3.org/2000/svg">
<path fill-rule="evenodd" clip-rule="evenodd" d="M267.181 61.8353C250.979 86.7596 235.905 112.465 221.173 137.955C217.675 144.581 211.366 148.02 202.902 150.195C179.97 156.091 162.076 161.036 148.352 162.854C138.038 164.222 126.883 162.881 118.776 157.624C95.5237 142.548 82.1912 131.289 76.1881 126.131C65.6076 117.044 59.7593 106.685 61.7958 94.7428C65.9301 70.4943 70.469 47.2954 76.7805 25.4827C78.5406 19.3968 87.6545 16.1289 100.442 15.0189C123.386 13.0279 137.946 11.9367 144.081 11.4627C154.341 6.36084 162.797 3.01208 169.45 1.41816C181.544 1.17628 189.255 1.1411 192.585 1.31351C227.285 19.8233 251.8 35.6727 266.128 48.8623C270.217 52.3253 270.554 56.6443 267.181 61.8353Z" fill="white" style="fill:white;fill-opacity:1;"/>
<path d="M140.842 164.563C131.993 164.563 123.869 162.481 117.82 158.558C96.0725 144.459 83.0104 133.766 75.0772 126.951C63.3267 116.858 58.3535 105.967 60.295 94.5806C63.8862 73.5187 68.4779 48.8062 75.3048 25.2122C77.0948 19.0226 85.7304 15.0833 100.277 13.8208C120.868 12.034 134.467 10.9902 141.773 10.4293L143.582 10.2901C153.777 5.23749 162.332 1.86495 169.014 0.264105C169.143 0.233171 169.277 0.216025 169.412 0.213342C181.668 -0.0318128 189.28 -0.0652802 192.683 0.110853C192.949 0.124717 193.206 0.194186 193.428 0.312328C228.062 18.7868 252.901 34.8507 267.254 48.0558C271.779 51.9022 272.207 56.7246 268.526 62.389H268.526C251.788 88.1386 236.023 115.145 222.559 138.441C219.184 144.82 213.264 148.799 203.367 151.342C199.967 152.217 196.676 153.07 193.494 153.896C175.005 158.691 160.401 162.48 148.601 164.044C145.976 164.392 143.379 164.563 140.842 164.563ZM169.694 2.61883C163.23 4.19329 154.884 7.51186 144.884 12.4847C144.685 12.5833 144.461 12.6442 144.228 12.6621L142.063 12.8286C134.764 13.3889 121.178 14.4319 100.606 16.2171C91.4381 17.0128 80.1187 19.3131 78.2562 25.753C71.4566 49.2525 66.878 73.8969 63.2962 94.9049C61.4566 105.693 66.0368 115.64 77.2987 125.312C85.1702 132.075 98.1328 142.685 119.733 156.69C126.842 161.3 137.181 163.113 148.104 161.666C159.679 160.132 174.187 156.368 192.556 151.604C195.74 150.778 199.033 149.923 202.437 149.048C211.428 146.738 216.776 143.173 219.777 137.488C219.784 137.476 219.79 137.464 219.797 137.452C233.278 114.128 249.064 87.083 265.836 61.2816C268.912 56.5477 268.647 52.7553 265.025 49.6879C265.01 49.6757 264.996 49.6633 264.983 49.6508C250.857 36.6476 226.333 20.7847 192.084 2.4974C188.633 2.35138 181.106 2.39216 169.694 2.61883Z" fill="#000068" style="fill:#000068;fill:color(display-p3 0.0000 0.0000 0.4078);fill-opacity:1;"/>
<path fill-rule="evenodd" clip-rule="evenodd" d="M226.225 49.66C229.118 47.8659 233.035 48.0187 234.977 50C236.919 51.9828 236.148 55.0439 233.257 56.8379C230.365 58.632 226.447 58.4792 224.506 56.4971C222.564 54.515 223.335 51.454 226.225 49.66Z" fill="white" style="fill:white;fill-opacity:1;"/>
<g opacity="0.2">
<path fill-rule="evenodd" clip-rule="evenodd" d="M150.989 79.2962C153.751 81.0282 156.626 82.4619 159.615 83.5963C158.618 83.6012 158.04 84.4038 156.961 84.4333C165.861 86.4906 162.159 94.7033 160.05 99.9695C161.568 98.9192 163.904 96.3633 165.22 95.4398C164.491 96.9036 163.95 98.5523 163.599 100.387C169.01 89.9153 168.761 88.2071 183.979 88.3917L172.395 86.449C165.252 85.4566 158.117 83.0733 150.989 79.2962ZM146.366 76.6505L148.334 78.1079C148.217 77.942 148.097 77.7793 147.976 77.6166C147.439 77.3018 146.903 76.9807 146.366 76.6505ZM210.212 147.715C208.703 148.264 204.585 149.763 202.902 150.195C179.97 156.091 162.076 161.036 148.352 162.854C144.575 163.355 140.685 163.493 136.873 163.207C147.969 156.937 155.695 139.011 160.054 109.43C148.116 143.988 139.881 159.685 128.909 160.813C128.686 161.149 128.483 161.467 128.301 161.771C124.862 160.839 121.63 159.474 118.776 157.624C112.189 153.354 106.401 149.389 101.348 145.785C73.1677 129.172 59.9821 112.158 61.7957 94.7426C62.7599 112.127 83.5087 129.863 124.043 147.951C124.117 148.438 124.152 148.891 124.151 149.312C129.74 146.627 134.58 140.716 139.017 131.677C142.887 123.792 145.978 116.676 148.177 110.29C161.016 79.682 149.07 86.1668 97.4398 39.1617C109.811 48.8652 121.175 57.6469 131.531 65.5082C128.839 63.1183 126.147 60.5306 123.457 57.7418C130.952 63.5303 138.568 67.7177 146.304 70.3069C152.01 71.5984 152.496 70.6715 147.763 67.5263H147.764C146.348 66.722 144.95 65.8311 143.571 64.8536C122.06 49.605 110.105 38.5013 107.423 31.7924C132.432 51.2823 148.439 62.9304 155.441 66.7368C157.397 67.1904 159.235 67.6302 160.957 68.0585C159.616 67.4128 158.296 66.7081 156.996 65.9415C172.764 71.3867 212.923 67.1309 213.134 60.279C212.576 57.0921 209.017 53.2121 202.458 48.6382L225.074 63.309L225.296 63.2345L231.084 67.2069L231.091 67.2117L242.257 74.8752C242.357 75.1711 242.427 75.4629 242.467 75.7506L239.004 73.3762C198.254 84.798 169.073 86.1931 151.462 77.561C164.342 87.6954 182.579 89.8597 206.175 84.0565C226.3 80.1536 238.479 77.6648 242.71 76.5899C243.472 76.4045 244.313 76.196 245.195 75.9737C247.318 72.2989 250.452 66.5814 254.599 58.8223C254.105 56.2026 229.459 38.6965 213.478 26.8794C232.283 35.1649 258.088 49.1269 263.799 56.1039C263.541 60.2429 259.545 67.1152 251.808 76.7208H251.807C243.088 93.0678 229.068 116.581 210.212 147.715Z" fill="#000068" style="fill:#000068;fill:color(display-p3 0.0000 0.0000 0.4078);fill-opacity:1;"/>
</g>
<path d="M180.503 87.8481C167.766 87.8481 157.699 85.2293 150.026 79.9621C120.693 59.8247 102.6 44.8762 93.905 37.6921C92.3034 36.369 91.0384 35.3239 90.0161 34.5019C83.6063 29.3479 81.1687 25.3723 82.3443 21.9903C83.525 18.5935 88.2107 16.1686 97.09 14.3591C97.7659 14.2221 98.4524 14.5454 98.6255 15.083C98.7984 15.6204 98.3911 16.1676 97.716 16.3052C90.0197 17.8735 85.6663 19.9666 84.7765 22.526C83.8793 25.1068 86.1798 28.562 91.8097 33.0887C92.844 33.9206 94.1141 34.97 95.7223 36.2986C104.391 43.4609 122.43 58.3644 151.675 78.4412C162.789 86.0712 179.456 87.7788 202.628 83.6618C228.113 79.1339 245.929 75.158 260.395 70.7706C261.046 70.5724 261.775 70.8332 262.024 71.3514C262.272 71.8697 261.945 72.45 261.294 72.6475C246.71 77.071 228.786 81.0725 203.178 85.6224C194.834 87.1046 187.289 87.8481 180.503 87.8481Z" fill="#000068" style="fill:#000068;fill:color(display-p3 0.0000 0.0000 0.4078);fill-opacity:1;"/>
<path d="M244.206 77.2167C243.914 77.2167 243.621 77.1367 243.383 76.9731L151.998 14.2567L153.646 12.7354L245.031 75.4518C245.559 75.8141 245.617 76.4483 245.162 76.8683C244.913 77.0986 244.56 77.2167 244.206 77.2167Z" fill="#000068" style="fill:#000068;fill:color(display-p3 0.0000 0.0000 0.4078);fill-opacity:1;"/>
<path d="M244.206 77.217C243.968 77.217 243.728 77.1637 243.514 77.0524C242.932 76.7481 242.769 76.1254 243.151 75.6615C247.909 69.8897 251.528 64.9371 253.91 60.9398C254.873 58.474 253.471 56.3465 248.59 52.8476C214.157 28.1574 187.671 10.1062 170.33 2.26182C169.724 1.98775 169.512 1.37467 169.857 0.892411C170.201 0.410152 170.971 0.240576 171.577 0.515546C189.116 8.44935 215.724 26.5772 250.279 51.355C255.143 54.8423 257.845 57.7752 256.288 61.6165C256.271 61.6578 256.251 61.6982 256.228 61.7373C253.797 65.8291 250.108 70.8846 245.262 76.7635C245.019 77.0574 244.616 77.217 244.206 77.217Z" fill="#000068" style="fill:#000068;fill:color(display-p3 0.0000 0.0000 0.4078);fill-opacity:1;"/>
<path d="M178.126 72.5741C169.1 72.5743 161.719 71.1218 156.127 68.2382C149.301 65.333 128.647 49.4924 112.501 36.6974C107.947 33.0888 106.341 29.8319 107.728 27.0175C110.678 21.0346 127.469 17.694 159.061 16.8047C159.764 16.7869 160.341 17.2189 160.366 17.773C160.391 18.3273 159.846 18.7927 159.15 18.8123C121.714 19.8661 111.801 24.2549 110.078 27.7512C109.092 29.7513 110.506 32.2824 114.281 35.2739C144.923 59.5553 154.422 65.2503 157.357 66.4837C157.391 66.4981 157.424 66.5136 157.456 66.5302C162.636 69.2132 169.517 70.5536 178.051 70.5539C190.293 70.5544 205.938 67.7975 224.863 62.2912C225.517 62.1011 226.242 62.3689 226.482 62.8898C226.721 63.4108 226.384 63.9875 225.73 64.178C209.365 68.9392 195.245 71.7049 183.762 72.3982C181.818 72.5156 179.938 72.5741 178.126 72.5741Z" fill="#000068" style="fill:#000068;fill:color(display-p3 0.0000 0.0000 0.4078);fill-opacity:1;"/>
<path d="M128.343 161.833C126.382 161.833 124.29 161.428 122.035 160.615C121.4 160.387 121.118 159.792 121.405 159.287C121.693 158.781 122.442 158.557 123.075 158.785C126.445 159.998 129.3 160.14 131.801 159.216C140.422 156.035 145.956 140.577 155.124 114.966C155.775 113.149 156.443 111.281 157.133 109.363C157.325 108.829 158.024 108.52 158.693 108.673C159.363 108.826 159.751 109.382 159.559 109.915C158.87 111.833 158.201 113.7 157.551 115.517C148.185 141.679 142.532 157.47 132.863 161.039C131.429 161.568 129.929 161.833 128.343 161.833Z" fill="#000068" style="fill:#000068;fill:color(display-p3 0.0000 0.0000 0.4078);fill-opacity:1;"/>
<path d="M162.158 100.913C162.035 100.913 161.909 100.898 161.785 100.867C161.119 100.703 160.746 100.141 160.953 99.6111C161.794 97.4485 163.648 92.8529 166.462 85.9516C166.678 85.424 167.39 85.136 168.052 85.3063C168.715 85.4777 169.078 86.0442 168.863 86.5718C166.052 93.4645 164.202 98.0513 163.363 100.205C163.196 100.636 162.697 100.913 162.158 100.913Z" fill="#000068" style="fill:#000068;fill:color(display-p3 0.0000 0.0000 0.4078);fill-opacity:1;"/>
<path fill-rule="evenodd" clip-rule="evenodd" d="M228.67 91.4333C227.03 87.497 208.05 89.887 201.878 97.2864C199.472 100.172 200.727 102.079 203.126 101.971L224.07 98.4429C229.808 97.8521 231.343 95.5152 228.67 91.4333Z" fill="white" style="fill:white;fill-opacity:1;"/>
<path d="M202.941 102.979C201.584 102.979 200.425 102.483 199.808 101.627C198.905 100.375 199.277 98.5903 200.827 96.7309C205.874 90.6789 218.253 87.9492 224.901 88.6587C228.209 89.0107 229.412 90.1264 229.832 91.0337C231.326 93.3434 231.599 95.253 230.644 96.7103C229.684 98.1743 227.544 99.0904 224.283 99.4332L203.387 102.953C203.325 102.964 203.261 102.971 203.198 102.974C203.111 102.977 203.026 102.979 202.941 102.979ZM222.754 90.5615C216.68 90.5615 206.879 93.1067 202.93 97.8417C201.765 99.2378 201.7 100.215 201.997 100.628C202.203 100.914 202.618 100.967 202.969 100.971L223.809 97.4599C223.842 97.4545 223.875 97.4501 223.908 97.4464C226.332 97.197 227.845 96.6367 228.406 95.7812C228.967 94.9265 228.679 93.6197 227.551 91.8973C227.52 91.8498 227.494 91.8003 227.473 91.7493C227.257 91.2316 226.171 90.8205 224.567 90.6498C224.013 90.5908 223.405 90.5615 222.754 90.5615Z" fill="#000068" style="fill:#000068;fill:color(display-p3 0.0000 0.0000 0.4078);fill-opacity:1;"/>
<path d="M103.108 125.435C84.2254 125.435 68.8633 110.556 68.8633 92.2677C68.8633 73.9792 84.2253 59.1006 103.108 59.1006C121.99 59.1006 137.352 73.9792 137.352 92.2677C137.352 110.556 121.99 125.435 103.108 125.435ZM103.108 61.5111C85.8953 61.5111 71.8918 75.3085 71.8918 92.2678C71.8918 109.227 85.8952 123.024 103.108 123.024C120.32 123.024 134.323 109.227 134.323 92.2678C134.323 75.3085 120.32 61.5111 103.108 61.5111Z" fill="#000068" style="fill:#000068;fill:color(display-p3 0.0000 0.0000 0.4078);fill-opacity:1;"/>
<path fill-rule="evenodd" clip-rule="evenodd" d="M106.854 62.3984C122.86 62.3984 135.837 75.7239 135.837 92.1633C135.837 108.602 122.86 121.928 106.854 121.928C90.8471 121.928 77.8701 108.602 77.8701 92.1633C77.8701 75.7238 90.8471 62.3984 106.854 62.3984Z" fill="#000068" style="fill:#000068;fill:color(display-p3 0.0000 0.0000 0.4078);fill-opacity:1;"/>
<path fill-rule="evenodd" clip-rule="evenodd" d="M135.086 98.9216C132.166 110.523 121.905 119.094 109.695 119.094C99.086 119.094 89.9495 112.624 85.8203 103.317C90.3253 96.2145 99.0274 91.4011 108.96 90.5151C118.893 89.629 128.718 92.7906 135.086 98.9216Z" fill="#39A1FF" style="fill:#39A1FF;fill:color(display-p3 0.2235 0.6314 1.0000);fill-opacity:1;"/>
<path d="M109.695 120.299C98.7934 120.299 88.8615 113.791 84.3924 103.718C84.2547 103.408 84.2825 103.067 84.4685 102.774C89.2203 95.2828 98.3128 90.2526 108.791 89.3178C119.271 88.3827 129.535 91.6866 136.253 98.1543C136.543 98.4342 136.66 98.8032 136.57 99.1588C133.438 111.606 122.387 120.299 109.695 120.299ZM87.4703 103.403C91.6005 112.221 100.267 117.889 109.695 117.889C120.737 117.889 130.425 110.255 133.452 99.2519C127.385 93.7031 118.348 90.891 109.129 91.7133C99.8842 92.538 91.8349 96.8935 87.4703 103.403Z" fill="#000068" style="fill:#000068;fill:color(display-p3 0.0000 0.0000 0.4078);fill-opacity:1;"/>
<path fill-rule="evenodd" clip-rule="evenodd" d="M64.2859 43.5035C78.6053 53.9485 78.5508 73.2683 64.1656 86.6548C49.7807 100.042 26.5117 102.427 12.1924 91.9825C-2.12477 81.5382 -2.0714 62.2185 12.3138 48.8318C26.6988 35.4453 49.9677 33.0594 64.2859 43.5035Z" fill="white" style="fill:white;fill-opacity:1;"/>
<path d="M33.6351 99.6939C25.1551 99.6939 17.2471 97.3048 11.1693 92.8716C-3.72072 82.0095 -3.72343 61.9022 11.1631 48.0488C18.9258 40.825 29.6695 36.3776 40.6396 35.847C49.948 35.394 58.7081 37.8005 65.309 42.6153C80.2001 53.4775 80.2034 73.5852 65.3163 87.4386C57.5537 94.6623 46.8099 99.1097 35.84 99.6407C35.1016 99.6764 34.3659 99.6939 33.6351 99.6939ZM42.8398 38.2041C42.171 38.2041 41.4993 38.2202 40.8234 38.253C30.6684 38.7444 20.6966 42.8858 13.4646 49.6156C-0.372967 62.4929 -0.484783 81.1002 13.2156 91.0944C19.2063 95.4644 27.1765 97.6477 35.6563 97.2344C45.8113 96.7433 55.7829 92.6017 63.0149 85.8718C76.8529 72.9943 76.9643 54.3869 63.2627 44.3925C57.7501 40.3714 50.5605 38.2041 42.8398 38.2041Z" fill="#000068" style="fill:#000068;fill:color(display-p3 0.0000 0.0000 0.4078);fill-opacity:1;"/>
<g opacity="0.2">
<path fill-rule="evenodd" clip-rule="evenodd" d="M54.8579 93.2221C41.0366 100.483 23.7165 100.389 12.1936 91.9831C-2.12475 81.5388 -2.07128 62.2191 12.3138 48.8324C18.5071 43.0685 26.3485 39.3462 34.412 37.8071C35.6997 38.1062 36.9771 38.4488 38.2424 38.8386C-15.8556 57.1964 6.21578 108.167 54.8579 93.2221Z" fill="#000068" style="fill:#000068;fill:color(display-p3 0.0000 0.0000 0.4078);fill-opacity:1;"/>
</g>
<g opacity="0.4">
<path fill-rule="evenodd" clip-rule="evenodd" d="M58.3546 49.8798C69.3405 57.8931 69.2983 72.715 58.262 82.9851C47.2259 93.2559 29.374 95.0861 18.3889 87.0719C7.40298 79.0592 7.44512 64.2373 18.4814 53.9674C29.5176 43.6965 47.3695 41.8664 58.3546 49.8798Z" fill="#000068" style="fill:#000068;fill:color(display-p3 0.0000 0.0000 0.4078);fill-opacity:1;"/>
</g>
<g opacity="0.54">
<path fill-rule="evenodd" clip-rule="evenodd" d="M38.7959 54.2023C41.1108 56.791 38.8723 61.2206 33.7953 64.0969C28.7182 66.9731 22.726 67.2063 20.4109 64.6165C18.096 62.0277 20.3357 57.5981 25.4115 54.7219C30.4885 51.8465 36.4808 51.6135 38.7959 54.2023Z" fill="white" style="fill:white;fill-opacity:1;"/>
</g>
<g opacity="0.54">
<path fill-rule="evenodd" clip-rule="evenodd" d="M50.6934 78.9761C51.8509 80.2708 50.7312 82.4858 48.1936 83.9237C45.655 85.3615 42.6594 85.4782 41.5019 84.1835C40.3434 82.8896 41.464 80.6746 44.0016 79.2369C46.5403 77.799 49.5359 77.6821 50.6934 78.9761Z" fill="white" style="fill:white;fill-opacity:1;"/>
</g>
<path fill-rule="evenodd" clip-rule="evenodd" d="M225.453 48.4469C228.345 46.6529 232.263 46.8058 234.204 48.7879C236.146 50.7699 235.375 53.831 232.484 55.625C229.593 57.4191 225.675 57.2663 223.733 55.2842C221.791 53.302 222.561 50.241 225.453 48.4469Z" fill="#7BA2FF" style="fill:#7BA2FF;fill:color(display-p3 0.4824 0.6353 1.0000);fill-opacity:1;"/>
<path d="M228.069 57.8758C225.987 57.8758 224.018 57.2083 222.738 55.9016C221.569 54.7087 221.145 53.1803 221.543 51.5976C221.927 50.0706 223.04 48.6701 224.677 47.6545C228.113 45.5231 232.833 45.7549 235.199 48.1701C236.368 49.3628 236.792 50.8912 236.394 52.4741C236.01 54.0011 234.897 55.4013 233.261 56.4168C231.684 57.3951 229.836 57.8758 228.069 57.8758ZM226.229 49.2388C225.069 49.9587 224.283 50.9365 224.018 51.9921C223.766 52.9923 224.018 53.9418 224.728 54.6662C226.239 56.2086 229.371 56.2829 231.709 54.8325C232.869 54.1128 233.654 53.1349 233.919 52.0794C234.171 51.0791 233.919 50.1295 233.209 49.4053C231.698 47.863 228.567 47.7881 226.229 49.2388Z" fill="#000068" style="fill:#000068;fill:color(display-p3 0.0000 0.0000 0.4078);fill-opacity:1;"/>
<path d="M229.889 51.9501C229.638 51.9501 229.387 51.8762 229.192 51.7272C228.789 51.4204 228.775 50.9117 229.16 50.5913L232.731 47.621C233.116 47.3006 233.755 47.2891 234.158 47.5959C234.56 47.9027 234.575 48.4113 234.189 48.7318L230.619 51.702C230.421 51.8671 230.155 51.9501 229.889 51.9501Z" fill="#000068" style="fill:#000068;fill:color(display-p3 0.0000 0.0000 0.4078);fill-opacity:1;"/>
<path fill-rule="evenodd" clip-rule="evenodd" d="M153.948 150.479C164.955 153.221 175.469 156.998 186.38 159.925C197.48 162.903 210.198 165.249 221.3 160.956C231.635 156.959 236.388 149.039 238.492 140.577H238.493C240.864 132.577 240.133 124.776 232.431 118.586C229.635 123.37 227.613 126.838 226.364 128.993C223.751 193.315 138.448 98.7903 90.0808 155.399C94.2931 154.883 98.4893 155.853 101.664 157.928C102.235 158.445 102.703 158.995 103.068 159.581C116.334 145.521 132.33 145.094 153.948 150.479Z" fill="#9DA9B9" style="fill:#9DA9B9;fill:color(display-p3 0.6157 0.6627 0.7255);fill-opacity:1;"/>
<g opacity="0.5">
<path fill-rule="evenodd" clip-rule="evenodd" d="M153.948 150.479C164.955 153.221 175.469 156.998 186.38 159.925C197.48 162.904 210.198 165.25 221.3 160.956C231.635 156.959 236.388 149.039 238.492 140.578H238.493C239.092 138.557 239.492 136.55 239.633 134.577C239.341 134.235 239.046 133.895 238.745 133.557C234.175 154.315 219.612 164.102 196.025 159.399C178.009 155.807 163.263 150.24 150.442 146.299C131.523 140.485 114.888 144.198 100.605 157.297C100.969 157.495 101.323 157.705 101.664 157.929C102.235 158.445 102.703 158.995 103.068 159.581C116.334 145.522 132.33 145.094 153.948 150.479Z" fill="white" style="fill:white;fill-opacity:1;"/>
</g>
<path d="M207.632 164.524C200.191 164.525 192.71 162.895 185.896 161.067C180.951 159.741 176.021 158.22 171.254 156.75C165.475 154.968 159.499 153.125 153.496 151.629C133.554 146.663 117.553 146.236 104.279 160.305C103.963 160.64 103.455 160.818 102.93 160.782C102.406 160.743 101.946 160.491 101.712 160.117C101.424 159.656 101.053 159.212 100.607 158.798C97.7193 156.945 93.9746 156.141 90.3115 156.591C89.7163 156.665 89.1226 156.448 88.8006 156.043C88.4787 155.637 88.4899 155.118 88.8287 154.722C114.254 124.963 149.521 135.829 177.859 144.559C193.964 149.521 207.874 153.807 216.073 149.487C221.535 146.61 224.406 139.894 224.85 128.954C224.857 128.793 224.904 128.635 224.989 128.488C226.238 126.333 228.261 122.863 231.058 118.078C231.267 117.72 231.683 117.467 232.171 117.399C232.66 117.332 233.158 117.458 233.507 117.739C240.735 123.548 242.85 131.103 239.973 140.833C237.365 151.292 231.305 158.426 221.962 162.04C217.336 163.829 212.492 164.524 207.632 164.524ZM132.022 146.084C138.363 146.084 145.65 147.149 154.4 149.329C160.499 150.848 166.523 152.706 172.348 154.502C177.084 155.963 181.982 157.473 186.864 158.783C197.546 161.65 209.913 164.02 220.639 159.872C229.209 156.557 234.563 150.169 237.006 140.343C237.01 140.329 237.014 140.315 237.018 140.3C239.432 132.16 238.068 125.74 232.844 120.738C230.628 124.529 228.97 127.376 227.867 129.277C227.353 140.911 224.04 148.181 217.744 151.497C208.239 156.504 193.654 152.01 176.766 146.807C162.988 142.562 147.371 137.751 132.44 137.642C116.418 137.528 103.523 142.906 93.1194 154.074C96.5691 154.211 99.9132 155.224 102.626 156.997C102.689 157.038 102.748 157.084 102.801 157.132C102.935 157.253 103.064 157.376 103.188 157.501C109.472 151.343 116.662 147.756 125.11 146.552C127.294 146.241 129.588 146.084 132.022 146.084Z" fill="#000068" style="fill:#000068;fill:color(display-p3 0.0000 0.0000 0.4078);fill-opacity:1;"/>
<g opacity="0.3">
<path fill-rule="evenodd" clip-rule="evenodd" d="M227.832 126.468L226.364 128.993C223.769 192.887 139.587 100.069 91.0588 154.315C92.7387 154.828 94.4557 155.286 96.2107 155.681C109.865 142.313 133.778 138.158 152.906 144.496C172.032 150.833 211.611 164.422 226.195 149.955C232.713 143.49 234.291 132.942 228.831 125.882L227.832 126.468Z" fill="#000068" style="fill:#000068;fill:color(display-p3 0.0000 0.0000 0.4078);fill-opacity:1;"/>
</g>
<path fill-rule="evenodd" clip-rule="evenodd" d="M73.9399 180.218C81.0626 163.315 86.2547 155.486 89.5163 155.477C93.9175 154.799 98.3477 155.761 101.665 157.928C104.049 160.084 104.642 162.843 103.441 166.207C100.435 173.454 97.0733 179.397 94.3151 184.403C87.7036 196.406 70.853 189.502 73.9399 180.218Z" fill="#9DA9B9" style="fill:#9DA9B9;fill:color(display-p3 0.6157 0.6627 0.7255);fill-opacity:1;"/>
<g opacity="0.5">
<path fill-rule="evenodd" clip-rule="evenodd" d="M99.8048 156.893C100.456 157.198 101.077 157.544 101.665 157.928C104.049 160.084 104.642 162.843 103.441 166.206C100.434 173.454 97.0733 179.397 94.315 184.403C93.4277 186.013 92.3566 187.279 91.1736 188.249C90.8913 188.018 90.6151 187.781 90.346 187.54C98.2234 171.477 101.375 161.261 99.8048 156.893Z" fill="white" style="fill:white;fill-opacity:1;"/>
</g>
<path d="M83.9665 192C82.6358 192 81.3584 191.813 80.2077 191.493C75.0673 190.064 70.6108 185.519 72.476 179.91C72.4844 179.885 72.4938 179.86 72.5044 179.835C81.8719 157.603 86.438 154.392 89.3515 154.275C94.0751 153.576 98.9059 154.565 102.625 156.997C102.689 157.038 102.747 157.083 102.801 157.132C105.536 159.605 106.242 162.769 104.898 166.536C104.892 166.552 104.886 166.568 104.879 166.584C102.072 173.351 99.0172 178.882 96.3221 183.762L95.7016 184.887C92.7876 190.177 88.1201 192 83.9665 192ZM75.3918 180.563C74.0242 184.755 77.3601 188.148 81.2062 189.217C84.8979 190.244 89.9144 189.39 92.928 183.919L93.5496 182.793C96.2144 177.968 99.2339 172.499 101.993 165.853C103.027 162.935 102.574 160.625 100.607 158.797C97.5677 156.848 93.6386 156.069 89.8041 156.66C89.7111 156.674 89.6164 156.682 89.5215 156.682C89.1051 156.683 85.1712 157.363 75.3918 180.563Z" fill="#000068" style="fill:#000068;fill:color(display-p3 0.0000 0.0000 0.4078);fill-opacity:1;"/>
<path fill-rule="evenodd" clip-rule="evenodd" d="M84.3878 181.81C87.3812 182.551 89.3827 184.395 88.8591 185.928C88.3341 187.462 85.4825 188.104 82.4899 187.363C79.4965 186.622 77.495 184.778 78.0189 183.244C78.5437 181.711 81.3953 181.069 84.3878 181.81Z" fill="#000068" style="fill:#000068;fill:color(display-p3 0.0000 0.0000 0.4078);fill-opacity:1;"/>
<path d="M96.1775 182.025C95.5855 182.025 95.0571 181.692 94.9401 181.212C94.1917 178.145 91.5618 175.638 87.9052 174.505C84.247 173.371 80.1794 173.803 77.0231 175.658C76.4626 175.988 75.6723 175.894 75.2583 175.448C74.8442 175.001 74.963 174.373 75.5233 174.043C79.3802 171.775 84.3505 171.248 88.821 172.633C93.2894 174.018 96.5031 177.081 97.4176 180.829C97.5504 181.373 97.1037 181.9 96.4194 182.006C96.3382 182.018 96.2572 182.025 96.1775 182.025Z" fill="#000068" style="fill:#000068;fill:color(display-p3 0.0000 0.0000 0.4078);fill-opacity:1;"/>
<path d="M102.185 170.125C101.654 170.125 101.16 169.856 100.986 169.433C99.8291 166.623 97.207 164.343 93.7924 163.178C90.3784 162.014 86.4962 162.075 83.1414 163.347C82.5115 163.586 81.7594 163.373 81.4596 162.872C81.1598 162.371 81.4271 161.772 82.0563 161.533C86.0654 160.013 90.7053 159.939 94.7864 161.332C98.8675 162.724 102.001 165.448 103.384 168.808C103.601 169.335 103.24 169.902 102.578 170.075C102.448 170.109 102.315 170.125 102.185 170.125Z" fill="#000068" style="fill:#000068;fill:color(display-p3 0.0000 0.0000 0.4078);fill-opacity:1;"/>
<path d="M226.123 133.515C225.891 133.515 225.656 133.464 225.446 133.357C224.858 133.059 224.686 132.437 225.061 131.97C228.264 127.978 234.672 126.597 239.968 128.758C240.588 129.01 240.833 129.616 240.515 130.11C240.197 130.603 239.436 130.798 238.817 130.545C234.685 128.86 229.686 129.937 227.188 133.051C226.947 133.351 226.54 133.515 226.123 133.515Z" fill="#000068" style="fill:#000068;fill:color(display-p3 0.0000 0.0000 0.4078);fill-opacity:1;"/>
<path d="M237.244 145.651C236.845 145.651 236.453 145.501 236.208 145.221C234.932 143.765 232.939 142.76 230.74 142.463C228.54 142.166 226.242 142.594 224.435 143.636C223.87 143.96 223.082 143.86 222.673 143.412C222.264 142.962 222.39 142.334 222.955 142.009C225.307 140.653 228.298 140.096 231.161 140.483C234.023 140.869 236.618 142.177 238.278 144.072C238.677 144.527 238.537 145.153 237.965 145.471C237.745 145.593 237.493 145.651 237.244 145.651Z" fill="#000068" style="fill:#000068;fill:color(display-p3 0.0000 0.0000 0.4078);fill-opacity:1;"/>
<path d="M226.188 159.546C226.077 159.546 225.964 159.534 225.852 159.51C225.18 159.362 224.786 158.809 224.971 158.274C225.573 156.539 225.249 154.66 224.083 153.119C222.918 151.577 220.983 150.47 218.775 150.081C218.095 149.961 217.665 149.424 217.816 148.883C217.967 148.341 218.639 147.998 219.321 148.12C222.201 148.627 224.725 150.072 226.246 152.083C227.766 154.094 228.189 156.545 227.404 158.809C227.249 159.254 226.741 159.546 226.188 159.546Z" fill="#000068" style="fill:#000068;fill:color(display-p3 0.0000 0.0000 0.4078);fill-opacity:1;"/>
<path d="M207.82 164.311C207.527 164.311 207.233 164.23 206.995 164.066C206.468 163.703 206.409 163.069 206.865 162.649C209.802 159.945 210.112 155.981 207.618 153.008C207.231 152.547 207.387 151.923 207.967 151.615C208.546 151.307 209.33 151.431 209.717 151.893C212.839 155.614 212.451 160.578 208.775 163.963C208.525 164.193 208.173 164.311 207.82 164.311Z" fill="#000068" style="fill:#000068;fill:color(display-p3 0.0000 0.0000 0.4078);fill-opacity:1;"/>
<path d="M187.846 161.317C187.277 161.317 186.761 161.009 186.621 160.549C186.457 160.01 186.873 159.467 187.55 159.336C189.841 158.894 191.643 157.566 192.371 155.783C193.101 153.999 192.627 152.08 191.103 150.649C190.652 150.226 190.717 149.593 191.249 149.234C191.781 148.875 192.577 148.927 193.027 149.35C195.122 151.316 195.774 153.953 194.771 156.404C193.77 158.855 191.293 160.68 188.145 161.289C188.045 161.308 187.945 161.317 187.846 161.317Z" fill="#000068" style="fill:#000068;fill:color(display-p3 0.0000 0.0000 0.4078);fill-opacity:1;"/>
<path d="M171.345 156.489C170.965 156.489 170.59 156.353 170.341 156.094C169.918 155.654 170.024 155.023 170.578 154.686C174.118 152.533 175.612 148.81 174.294 145.422C174.088 144.892 174.461 144.33 175.127 144.166C175.791 144.002 176.499 144.298 176.705 144.828C178.334 149.017 176.488 153.62 172.11 156.283C171.881 156.422 171.612 156.489 171.345 156.489Z" fill="#000068" style="fill:#000068;fill:color(display-p3 0.0000 0.0000 0.4078);fill-opacity:1;"/>
<path d="M155.58 151.898C155.171 151.898 154.77 151.74 154.527 151.448C154.142 150.986 154.3 150.363 154.881 150.056C158.656 148.064 160.191 144.311 158.613 140.931C158.371 140.411 158.704 139.833 159.357 139.64C160.01 139.446 160.736 139.712 160.979 140.232C162.967 144.491 161.033 149.219 156.276 151.73C156.062 151.844 155.819 151.898 155.58 151.898Z" fill="#000068" style="fill:#000068;fill:color(display-p3 0.0000 0.0000 0.4078);fill-opacity:1;"/>
<path d="M140.943 148.918C140.68 148.918 140.413 148.853 140.186 148.717C139.629 148.384 139.517 147.754 139.936 147.311C142.603 144.485 143.088 140.741 141.199 137.541C140.903 137.038 141.175 136.44 141.805 136.204C142.437 135.968 143.188 136.185 143.484 136.687C145.77 140.562 145.184 145.095 141.953 148.517C141.705 148.78 141.326 148.918 140.943 148.918Z" fill="#000068" style="fill:#000068;fill:color(display-p3 0.0000 0.0000 0.4078);fill-opacity:1;"/>
<path d="M129.489 148.353C129.431 148.353 129.372 148.35 129.312 148.343C128.622 148.266 128.141 147.758 128.238 147.209C128.898 143.474 126.557 139.734 122.414 137.904C121.805 137.634 121.585 137.023 121.923 136.538C122.262 136.053 123.03 135.878 123.639 136.147C128.689 138.379 131.542 142.936 130.737 147.488C130.649 147.99 130.108 148.353 129.489 148.353Z" fill="#000068" style="fill:#000068;fill:color(display-p3 0.0000 0.0000 0.4078);fill-opacity:1;"/>
<path d="M117.532 150.711C116.93 150.711 116.397 150.367 116.29 149.88C115.47 146.14 111.581 143.282 106.833 142.927C106.139 142.875 105.63 142.385 105.695 141.833C105.76 141.28 106.373 140.869 107.069 140.927C112.947 141.366 117.761 144.906 118.777 149.534C118.896 150.081 118.437 150.601 117.75 150.696C117.677 150.706 117.604 150.711 117.532 150.711Z" fill="#000068" style="fill:#000068;fill:color(display-p3 0.0000 0.0000 0.4078);fill-opacity:1;"/>
<path d="M107.664 156.336C107.035 156.336 106.491 155.963 106.413 155.453C105.866 151.885 102.353 149.09 97.87 148.657C97.1784 148.59 96.6857 148.089 96.7696 147.539C96.8535 146.988 97.4779 146.595 98.1746 146.663C103.812 147.208 108.23 150.722 108.919 155.21C109.003 155.761 108.51 156.261 107.819 156.328C107.767 156.334 107.715 156.336 107.664 156.336Z" fill="#000068" style="fill:#000068;fill:color(display-p3 0.0000 0.0000 0.4078);fill-opacity:1;"/>
<g opacity="0.3">
<path fill-rule="evenodd" clip-rule="evenodd" d="M203.432 95.739C221.547 88.2136 230.248 88.3778 229.535 96.2302C220.747 93.1201 210.438 94.9567 204.152 100.75C200.513 102.095 200.273 100.424 203.432 95.739Z" fill="#000068" style="fill:#000068;fill:color(display-p3 0.0000 0.0000 0.4078);fill-opacity:1;"/>
</g>
<g opacity="0.25">
<path fill-rule="evenodd" clip-rule="evenodd" d="M209.723 52.5469C226.172 63.8361 236.431 70.8761 239.46 72.9554C250.681 63.4855 253.168 55.9446 247.959 51.0437C234.008 41.1594 227.032 36.2178 227.032 36.2178C238.176 45.0828 239.802 53.0749 231.908 60.194C229.545 62.2211 222.151 59.6726 209.723 52.5469Z" fill="#000068" style="fill:#000068;fill:color(display-p3 0.0000 0.0000 0.4078);fill-opacity:1;"/>
</g>
<path fill-rule="evenodd" clip-rule="evenodd" d="M206.17 34.927C209.062 33.1329 212.979 33.2857 214.921 35.2678C216.863 37.2499 216.093 40.3117 213.201 42.1058C210.309 43.8989 206.391 43.7469 204.45 41.7648C202.508 39.7821 203.278 36.7212 206.17 34.927Z" fill="white" style="fill:white;fill-opacity:1;"/>
<path fill-rule="evenodd" clip-rule="evenodd" d="M205.397 33.7141C208.289 31.92 212.207 32.0728 214.148 34.0549C216.09 36.0379 215.319 39.0988 212.429 40.8928C209.536 42.6869 205.619 42.5341 203.677 40.552C201.736 38.5701 202.506 35.5083 205.397 33.7141Z" fill="#7BA2FF" style="fill:#7BA2FF;fill:color(display-p3 0.4824 0.6353 1.0000);fill-opacity:1;"/>
<path d="M208.013 43.1434C205.931 43.1434 203.962 42.476 202.682 41.1694C201.514 39.9768 201.089 38.4481 201.487 36.8653C201.872 35.3378 202.985 33.9373 204.622 32.9217C206.258 31.9061 208.234 31.3881 210.191 31.465C212.216 31.544 213.975 32.2444 215.143 33.4373C217.509 35.8534 216.639 39.5532 213.205 41.6847C211.627 42.6627 209.78 43.1434 208.013 43.1434ZM206.173 34.506C205.013 35.2259 204.228 36.2038 203.962 37.2596C203.71 38.2599 203.963 39.2099 204.672 39.9341C206.183 41.476 209.314 41.5506 211.653 40.1003C213.99 38.6499 214.663 36.2147 213.153 34.6721C212.443 33.9476 211.348 33.5213 210.068 33.4712C208.713 33.4203 207.333 33.7861 206.173 34.506Z" fill="#000068" style="fill:#000068;fill:color(display-p3 0.0000 0.0000 0.4078);fill-opacity:1;"/>
<path d="M209.833 37.2187C209.583 37.2187 209.331 37.1448 209.136 36.996C208.733 36.6892 208.719 36.1805 209.104 35.8598L212.675 32.8887C213.06 32.568 213.699 32.5568 214.102 32.8634C214.505 33.1702 214.519 33.6789 214.134 33.9995L210.563 36.9707C210.365 37.1357 210.099 37.2187 209.833 37.2187Z" fill="#000068" style="fill:#000068;fill:color(display-p3 0.0000 0.0000 0.4078);fill-opacity:1;"/>
<path fill-rule="evenodd" clip-rule="evenodd" d="M188.293 22.8959C191.185 21.1017 195.102 21.2545 197.044 23.2358C198.985 25.2188 198.215 28.2797 195.323 30.0739C192.432 31.8678 188.515 31.715 186.573 29.7331C184.631 27.751 185.401 24.69 188.293 22.8959Z" fill="white" style="fill:white;fill-opacity:1;"/>
<path fill-rule="evenodd" clip-rule="evenodd" d="M187.52 21.6829C190.412 19.8888 194.329 20.0416 196.271 22.0237C198.213 24.0058 197.443 27.0668 194.551 28.8609C191.659 30.6549 187.742 30.502 185.8 28.5199C183.859 26.538 184.629 23.477 187.52 21.6829Z" fill="#7BA2FF" style="fill:#7BA2FF;fill:color(display-p3 0.4824 0.6353 1.0000);fill-opacity:1;"/>
<path d="M190.136 31.1118C188.054 31.1118 186.085 30.4443 184.805 29.1375C182.439 26.7217 183.309 23.0223 186.744 20.8908C186.744 20.8906 186.744 20.8906 186.744 20.8906C190.179 18.7589 194.9 18.9906 197.266 21.406C198.435 22.5988 198.859 24.1273 198.461 25.7099C198.077 27.2371 196.964 28.6374 195.327 29.653C193.75 30.6311 191.902 31.1118 190.136 31.1118ZM188.296 22.4748C185.958 23.9255 185.285 26.3604 186.795 27.9024C188.306 29.4443 191.437 29.5189 193.775 28.0687C194.936 27.3488 195.721 26.371 195.987 25.3156C196.238 24.3154 195.986 23.3656 195.276 22.6412C193.765 21.0984 190.634 21.0238 188.296 22.4748L188.296 22.4748Z" fill="#000068" style="fill:#000068;fill:color(display-p3 0.0000 0.0000 0.4078);fill-opacity:1;"/>
<path d="M191.956 25.1862C191.705 25.1862 191.454 25.1123 191.258 24.9632C190.855 24.6564 190.841 24.1478 191.227 23.8273L194.797 20.8571C195.183 20.5364 195.822 20.5248 196.224 20.832C196.627 21.1388 196.641 21.6474 196.256 21.9678L192.685 24.9381C192.487 25.1031 192.222 25.1862 191.956 25.1862Z" fill="#000068" style="fill:#000068;fill:color(display-p3 0.0000 0.0000 0.4078);fill-opacity:1;"/>
<path fill-rule="evenodd" clip-rule="evenodd" d="M169.496 10.2356C172.388 8.4415 176.305 8.5943 178.247 10.5764C180.189 12.5593 179.418 15.6203 176.527 17.4144C173.635 19.2084 169.717 19.0556 167.775 17.0736C165.834 15.0907 166.605 12.0297 169.496 10.2356Z" fill="white" style="fill:white;fill-opacity:1;"/>
<path fill-rule="evenodd" clip-rule="evenodd" d="M168.723 9.02331C171.615 7.22918 175.533 7.38198 177.474 9.36327C179.416 11.3462 178.645 14.4072 175.754 16.2013C172.863 17.9953 168.945 17.8424 167.003 15.8603C165.061 13.8784 165.831 10.8174 168.723 9.02331Z" fill="#7BA2FF" style="fill:#7BA2FF;fill:color(display-p3 0.4824 0.6353 1.0000);fill-opacity:1;"/>
<path d="M171.339 18.4524C169.257 18.4524 167.288 17.785 166.008 16.4782C164.839 15.2855 164.415 13.7571 164.813 12.1744C165.197 10.6474 166.31 9.24717 167.947 8.23152C171.383 6.10018 176.102 6.3311 178.469 8.74583C180.835 11.1619 179.965 14.8617 176.53 16.9936C174.953 17.9718 173.106 18.4524 171.339 18.4524ZM173.147 8.77453C171.926 8.77453 170.621 9.11956 169.499 9.81582C168.339 10.5357 167.553 11.5135 167.288 12.569C167.036 13.5689 167.288 14.5186 167.998 15.2429C169.509 16.785 172.64 16.8596 174.979 15.4094C177.316 13.9586 177.989 11.5233 176.479 9.98107C175.694 9.17942 174.47 8.77453 173.147 8.77453Z" fill="#000068" style="fill:#000068;fill:color(display-p3 0.0000 0.0000 0.4078);fill-opacity:1;"/>
<path d="M173.16 12.527C172.909 12.527 172.657 12.4531 172.462 12.304C172.059 11.9974 172.045 11.4887 172.43 11.1681L176.001 8.19787C176.386 7.87706 177.025 7.86581 177.428 8.17275C177.831 8.4794 177.845 8.98805 177.459 9.30864L173.889 12.2789C173.691 12.444 173.425 12.527 173.16 12.527Z" fill="#000068" style="fill:#000068;fill:color(display-p3 0.0000 0.0000 0.4078);fill-opacity:1;"/>
<g opacity="0.3">
<path fill-rule="evenodd" clip-rule="evenodd" d="M73.9399 180.218C81.2453 157.392 90.4867 149.962 101.665 157.928C94.4579 156.083 88.9289 164.109 85.0779 182.006C83.6812 186.366 85.5781 188.554 90.7701 188.57C78.4379 191.543 72.8278 188.759 73.9399 180.218Z" fill="#000068" style="fill:#000068;fill:color(display-p3 0.0000 0.0000 0.4078);fill-opacity:1;"/>
</g>
<g opacity="0.2">
<path fill-rule="evenodd" clip-rule="evenodd" d="M133.275 99.9092C134.009 109.541 125.106 117.931 113.052 118.966C101 120.001 90.0521 113.315 88.1894 103.78C90.4147 108.075 95.5801 110.945 101.414 111.127C107.247 111.307 112.677 108.768 115.316 104.623C117.957 100.48 117.321 95.4913 113.69 91.8533C124.996 91.4324 131.524 94.1174 133.275 99.9092Z" fill="#000068" style="fill:#000068;fill:color(display-p3 0.0000 0.0000 0.4078);fill-opacity:1;"/>
</g>
<g opacity="0.54">
<path fill-rule="evenodd" clip-rule="evenodd" d="M66.1198 66.2311L66.1682 66.0798C66.2493 65.8273 66.3869 65.5992 66.5664 65.3981C66.5254 59.4756 63.7897 53.8449 58.3544 49.8799C47.3693 41.8674 29.5175 43.6967 18.4813 53.9675C12.2068 59.8067 9.48539 67.1171 10.3253 73.8112C13.0868 43.2306 59.7181 35.4152 66.1198 66.2311Z" fill="white" style="fill:white;fill-opacity:1;"/>
</g>
<path d="M34.8398 93.0683C28.3084 93.0685 22.2176 91.2279 17.5363 87.8125C6.07229 79.451 6.06611 63.9753 17.5226 53.3147C23.4952 47.7561 31.7631 44.3338 40.2064 43.9253C47.3739 43.5795 54.1222 45.4302 59.207 49.1395C70.6707 57.5014 70.6771 72.9772 59.221 83.638C53.2481 89.1968 44.98 92.6191 36.5367 93.0273C35.9684 93.0547 35.402 93.0683 34.8398 93.0683ZM41.9001 45.893C41.3893 45.893 40.876 45.9054 40.3596 45.9303C32.5956 46.3059 24.9709 49.4732 19.4404 54.6202C8.85834 64.4675 8.7689 78.6932 19.2415 86.3315C23.8172 89.6696 29.9061 91.3344 36.3836 91.0221C44.1476 90.6467 51.7725 87.4794 57.3032 82.3324C67.8851 72.4849 67.9743 58.259 57.5019 50.6203C53.2909 47.5486 47.7986 45.893 41.9001 45.893Z" fill="#000068" style="fill:#000068;fill:color(display-p3 0.0000 0.0000 0.4078);fill-opacity:1;"/>
<path fill-rule="evenodd" clip-rule="evenodd" d="M69.9997 64.5694L77.9705 66.7108C79.5468 67.1342 80.2792 68.4787 79.8684 69.7604L74.8743 85.3391C74.4636 86.6215 72.6183 87.273 71.0431 86.8495L63.0709 84.7082C61.4967 84.2847 60.7626 82.9419 61.1744 81.6586L66.1683 66.0798C66.5801 64.7974 68.4234 64.1467 69.9997 64.5694Z" fill="white" style="fill:white;fill-opacity:1;"/>
<path d="M72.038 88.1845C71.5388 88.1845 71.0389 88.1206 70.5585 87.9916L62.5867 85.8503C60.3194 85.2402 59.0817 83.3102 59.7073 81.3605L64.7011 65.7821C64.989 64.8851 65.7291 64.1397 66.7851 63.6829C67.9162 63.1937 69.2645 63.1009 70.4831 63.4273C70.4832 63.4274 70.4837 63.4274 70.484 63.4276L78.4549 65.5691C80.722 66.178 81.9607 68.1079 81.3359 70.0585L76.3416 85.6372C76.0545 86.5341 75.3139 87.2799 74.2567 87.7369C73.5709 88.0335 72.8057 88.1845 72.038 88.1845ZM69.0074 65.6465C68.7379 65.6465 68.4674 65.6987 68.2315 65.8008C68.0138 65.8948 67.7339 66.0716 67.6354 66.3784L62.6416 81.9567C62.4415 82.5809 62.6912 83.3341 63.5559 83.5666L71.5274 85.7078C71.9433 85.8194 72.423 85.7862 72.811 85.619C73.0286 85.5247 73.3089 85.3482 73.407 85.0414L78.4013 69.4627C78.6012 68.8386 78.3512 68.0854 77.4866 67.853L69.5164 65.7118C69.3534 65.6679 69.1805 65.6465 69.0074 65.6465Z" fill="#000068" style="fill:#000068;fill:color(display-p3 0.0000 0.0000 0.4078);fill-opacity:1;"/>
</svg>
